<svg width="50" height="50" viewBox="0 0 50 50" fill="none" xmlns="http://www.w3.org/2000/svg">
<circle cx="25" cy="25" r="24.35" stroke="#EBF0F2" stroke-width="1.3"/>
<path d="M25.0357 24.9641C18.8601 16.6298 18.7387 12.3667 25.0357 1.92078C31.5815 11.356 31.5223 16.3845 25.0357 24.9641ZM25.0357 24.9641C34.22 19.0526 39.2222 19.0148 47.8673 24.9641C38.7248 31.2453 33.7445 30.7317 25.0357 24.9641ZM25.0357 24.9641C31.1717 33.5742 31.1743 38.612 25.0357 47.9783C18.6174 39.258 18.6671 34.2258 25.0357 24.9641ZM25.0357 24.9641C16.403 18.9309 11.3606 18.8032 1.97168 24.9641C11.1394 31.4574 16.1967 31.4152 25.0357 24.9641Z" stroke="#EBF0F2" stroke-width="1.3"/>
<ellipse cx="37.2389" cy="13.1926" rx="1.33752" ry="1.33752" fill="#EBF0F2"/>
<ellipse cx="12.5797" cy="13.1926" rx="1.33752" ry="1.33752" fill="#EBF0F2"/>
<ellipse cx="12.5797" cy="37.0759" rx="1.33752" ry="1.33752" fill="#EBF0F2"/>
<ellipse cx="37.2389" cy="37.0759" rx="1.33752" ry="1.33752" fill="#EBF0F2"/>
</svg>
