<svg width="52" height="52" viewBox="0 0 52 52" fill="none" xmlns="http://www.w3.org/2000/svg">
<circle cx="26" cy="26" r="24.35" stroke="#EBF0F2" stroke-width="1.3"/>
<path d="M26.0357 25.9641C19.8601 17.6298 19.7387 13.3667 26.0357 2.92078C32.5815 12.356 32.5223 17.3845 26.0357 25.9641ZM26.0357 25.9641C35.22 20.0526 40.2222 20.0148 48.8673 25.9641C39.7248 32.2453 34.7445 31.7317 26.0357 25.9641ZM26.0357 25.9641C32.1717 34.5742 32.1743 39.612 26.0357 48.9783C19.6174 40.258 19.6671 35.2258 26.0357 25.9641ZM26.0357 25.9641C17.403 19.9309 12.3606 19.8032 2.97168 25.9641C12.1394 32.4574 17.1967 32.4152 26.0357 25.9641Z" stroke="#EBF0F2" stroke-width="1.3"/>
<ellipse cx="38.2389" cy="14.1926" rx="1.33752" ry="1.33752" fill="#EBF0F2"/>
<ellipse cx="13.5797" cy="14.1926" rx="1.33752" ry="1.33752" fill="#EBF0F2"/>
<ellipse cx="13.5797" cy="38.0759" rx="1.33752" ry="1.33752" fill="#EBF0F2"/>
<ellipse cx="38.2389" cy="38.0759" rx="1.33752" ry="1.33752" fill="#EBF0F2"/>
</svg>
