<svg width="196" height="197" viewBox="0 0 196 197" fill="none" xmlns="http://www.w3.org/2000/svg">
<path d="M97.9979 98.3243C72.2939 63.6352 71.7883 45.8911 97.9979 2.41235C125.243 41.6841 124.997 62.614 97.9979 98.3243ZM97.9979 98.3243C136.225 73.7193 157.046 73.5619 193.029 98.3243C154.976 124.468 134.246 122.331 97.9979 98.3243ZM97.9979 98.3243C123.538 134.162 123.548 155.13 97.9979 194.115C71.2834 157.819 71.4904 136.874 97.9979 98.3243ZM97.9979 98.3243C62.0669 73.2127 41.0791 72.6813 2 98.3243C40.1583 125.351 61.208 125.176 97.9979 98.3243Z" stroke="#F9F1E3" stroke-width="4" stroke-linejoin="round"/>
<circle cx="148.833" cy="46.9807" r="2" fill="#F9EEE3" stroke="#F9F1E3" stroke-width="3"/>
<circle cx="46.1953" cy="46.9807" r="2" fill="#F9EEE3" stroke="#F9F1E3" stroke-width="3"/>
<circle cx="46.1953" cy="149.547" r="2" fill="#F9EEE3" stroke="#F9F1E3" stroke-width="3"/>
<circle cx="148.833" cy="149.547" r="2" fill="#F9EEE3" stroke="#F9F1E3" stroke-width="3"/>
</svg>
