<svg width="1017" height="278" viewBox="0 0 1017 278" fill="none" xmlns="http://www.w3.org/2000/svg">
<g filter="url(#filter0_d_74_455)">
<path d="M995.268 54.8067V68.9056C992.915 64.8145 989.945 61.1041 986.36 57.7752C981.523 53.2838 975.826 49.7459 969.274 47.1593C962.882 44.5686 955.978 43.2756 948.565 43.2756C937.017 43.2756 926.661 46.2071 917.511 52.077C908.368 57.9424 901.127 66.0484 895.788 76.3814C890.444 86.5545 887.779 98.3514 887.779 111.758C887.779 124.823 890.358 136.615 895.527 147.124L895.53 147.13C900.868 157.633 908.107 165.911 917.249 171.948L917.253 171.95C926.574 177.992 937.102 181.01 948.822 181.01C956.066 181.01 962.802 179.716 969.024 177.123L969.03 177.121C975.405 174.364 980.927 170.828 985.59 166.51C989.566 162.829 992.794 158.889 995.268 154.692V170.248C995.268 172.423 995.998 174.337 997.447 175.968L997.457 175.979L997.467 175.989C999.102 177.624 1001.11 178.444 1003.46 178.444C1005.66 178.444 1007.58 177.616 1009.21 175.989C1010.83 174.362 1011.66 172.442 1011.66 170.248V54.8067C1011.66 52.4589 1010.84 50.453 1009.22 48.8197C1007.75 47.1719 1005.81 46.354 1003.46 46.354C1001.11 46.354 999.102 47.1741 997.467 48.8093L997.457 48.8197L997.447 48.8307C995.99 50.469 995.268 52.4715 995.268 54.8067ZM990.188 84.7847L990.188 84.7847L990.192 84.7923C994.257 92.7521 996.294 101.737 996.294 111.758C996.294 121.951 994.256 131.195 990.188 139.5L990.187 139.504C986.289 147.639 980.873 154.067 973.94 158.802C967.017 163.36 959.078 165.644 950.105 165.644C941.131 165.644 933.192 163.36 926.269 158.802C919.336 154.066 913.834 147.638 909.765 139.502C905.868 131.197 903.915 121.952 903.915 111.758C903.915 101.391 905.869 92.2338 909.763 84.2755C913.83 76.3111 919.331 70.0529 926.263 65.4872C933.361 60.9246 941.304 58.6416 950.105 58.6416C959.075 58.6416 967.014 61.0095 973.937 65.7376C980.874 70.4748 986.291 76.82 990.188 84.7847Z" fill="#F1FAEE" stroke="#F1FAEE"/>
<path d="M677.878 68.3507C680.27 65.0034 683.071 61.9033 686.281 59.0506C690.94 54.9088 696.204 51.6301 702.068 49.2149C708.115 46.6238 714.423 45.3278 720.989 45.3278C731.685 45.3278 740.857 48.176 748.479 53.8915C754.653 58.3827 759.224 64.6804 762.206 72.7573C764.5 68.4395 767.844 64.3832 772.225 60.5861L677.878 68.3507ZM677.878 68.3507V55.3197C677.878 53.1308 677.052 51.2137 675.433 49.5892C673.963 47.9414 672.03 47.1236 669.681 47.1236C667.329 47.1236 665.319 47.9437 663.684 49.5789L663.674 49.5893L663.664 49.6002C662.215 51.2306 661.485 53.1445 661.485 55.3197V170.248C661.485 172.423 662.215 174.337 663.664 175.968C665.143 177.631 667.17 178.444 669.681 178.444C671.875 178.444 673.796 177.616 675.422 175.989L675.069 175.635L675.422 175.989C677.049 174.362 677.878 172.442 677.878 170.248V97.6482C677.878 90.7332 679.731 84.5038 683.435 78.9461C687.322 73.3706 692.305 68.9787 698.39 65.7668L698.395 65.7645C704.652 62.3824 711.24 60.6939 718.167 60.6939C725.966 60.6939 732.092 62.3895 736.596 65.7264L736.596 65.7265L736.606 65.7335C741.135 68.9203 744.409 73.2812 746.429 78.8354C748.458 84.4161 749.477 90.6849 749.477 97.6482V170.248C749.477 172.423 750.207 174.337 751.656 175.968L751.666 175.979L751.676 175.989C753.311 177.624 755.321 178.444 757.674 178.444C760.022 178.444 761.955 177.626 763.425 175.979C765.045 174.354 765.87 172.437 765.87 170.248V98.4179C765.87 91.5076 767.806 85.1931 771.681 79.462C775.74 73.7135 780.896 69.1491 787.154 65.7658C793.584 62.3821 800.259 60.6939 807.185 60.6939C815.156 60.6939 821.457 62.3902 826.135 65.7315C830.839 69.0915 834.286 73.6275 836.476 79.3562C838.675 85.1072 839.778 91.4592 839.778 98.4179V170.248C839.778 172.423 840.508 174.337 841.957 175.968L841.967 175.979L841.977 175.989C843.612 177.624 845.622 178.444 847.974 178.444C850.323 178.444 852.256 177.626 853.726 175.978C855.346 174.354 856.171 172.437 856.171 170.248V97.6482C856.171 87.8498 854.624 79.0651 851.52 71.3021C848.578 63.3458 843.728 57.0215 836.974 52.3447C830.365 47.6504 821.618 45.3278 810.777 45.3278C803.867 45.3278 797.047 46.7101 790.32 49.4698C783.602 52.2263 777.569 55.9316 772.225 60.5857L677.878 68.3507Z" fill="#F1FAEE" stroke="#F1FAEE"/>
<path d="M608.286 175.967L608.296 175.978L608.306 175.989C609.942 177.624 611.951 178.444 614.304 178.444C616.497 178.444 618.418 177.616 620.045 175.989C621.671 174.362 622.5 172.442 622.5 170.248V52.2412C622.5 50.0522 621.675 48.1352 620.055 46.5107C618.585 44.8629 616.652 44.0451 614.304 44.0451C611.951 44.0451 609.942 44.8651 608.306 46.5003L608.296 46.5107L608.286 46.5217C606.837 48.1521 606.108 50.0659 606.108 52.2412V170.248C606.108 172.423 606.837 174.337 608.286 175.967ZM628.043 22.0496L628.059 22.0673L628.077 22.0833C630.078 23.9025 632.865 24.7787 636.366 24.7787C639.704 24.7787 642.402 23.8985 644.398 22.0833C646.416 20.2487 647.384 17.5277 647.384 14.0172V11.4518C647.384 8.11295 646.417 5.48747 644.416 3.65832C642.587 1.65744 639.961 0.690369 636.622 0.690369C633.114 0.690369 630.324 1.65623 628.325 3.6503C626.318 5.4798 625.348 8.10808 625.348 11.4518V14.0172C625.348 17.3553 626.228 20.0529 628.043 22.0496ZM584.192 22.0669C586.029 23.9039 588.744 24.7787 592.242 24.7787C595.58 24.7787 598.277 23.8985 600.274 22.0833C602.292 20.2487 603.26 17.5277 603.26 14.0172V11.4518C603.26 8.11296 602.293 5.48748 600.292 3.65832C598.457 1.65232 595.742 0.690369 592.242 0.690369C588.896 0.690369 586.195 1.66095 584.2 3.65032C582.194 5.47982 581.224 8.10809 581.224 11.4518V14.0172C581.224 17.368 582.197 20.0718 584.192 22.0669Z" fill="#F1FAEE" stroke="#F1FAEE"/>
<path d="M550.838 54.8067V68.9057C548.484 64.8145 545.514 61.1041 541.929 57.7752C537.092 53.2838 531.395 49.7459 524.843 47.1593C518.452 44.5686 511.547 43.2756 504.135 43.2756C492.587 43.2756 482.23 46.2071 473.08 52.077C463.937 57.9424 456.697 66.0484 451.358 76.3814C446.013 86.5545 443.349 98.3514 443.349 111.758C443.349 124.823 445.928 136.615 451.096 147.124L451.099 147.13C456.437 157.633 463.676 165.911 472.818 171.948L472.822 171.95C482.143 177.992 492.671 181.01 504.391 181.01C511.635 181.01 518.371 179.716 524.593 177.123L524.6 177.121C530.975 174.364 536.496 170.828 541.159 166.51C545.136 162.829 548.363 158.889 550.838 154.692V170.248C550.838 172.423 551.567 174.337 553.016 175.968L553.026 175.979L553.036 175.989C554.671 177.624 556.681 178.444 559.034 178.444C561.227 178.444 563.148 177.616 564.774 175.989C566.401 174.362 567.23 172.442 567.23 170.248V54.8067C567.23 52.4589 566.413 50.453 564.785 48.8197C563.315 47.1718 561.382 46.354 559.034 46.354C556.681 46.354 554.671 47.1741 553.036 48.8093L553.026 48.8197L553.016 48.8307C551.56 50.469 550.838 52.4715 550.838 54.8067ZM545.758 84.7847L545.758 84.7847L545.761 84.7923C549.826 92.7521 551.864 101.737 551.864 111.758C551.864 121.951 549.826 131.195 545.758 139.5L545.756 139.504C541.858 147.639 536.442 154.067 529.51 158.802C522.587 163.36 514.647 165.644 505.674 165.644C496.701 165.644 488.761 163.36 481.838 158.802C474.905 154.066 469.403 147.638 465.335 139.502C461.437 131.197 459.484 121.952 459.484 111.758C459.484 101.391 461.438 92.2338 465.332 84.2755C469.399 76.3111 474.9 70.0529 481.832 65.4872C488.931 60.9246 496.873 58.6416 505.674 58.6416C514.645 58.6416 522.583 61.0095 529.506 65.7376C536.443 70.4748 541.86 76.82 545.758 84.7847Z" fill="#F1FAEE" stroke="#F1FAEE"/>
<path d="M329.856 56.4704C325.68 59.7829 322.103 63.5183 319.127 67.6765V55.3197C319.127 53.1308 318.301 51.2137 316.682 49.5893C315.212 47.9415 313.279 47.1236 310.93 47.1236C308.578 47.1236 306.568 47.9437 304.933 49.5789L304.923 49.5893L304.913 49.6003C303.464 51.2307 302.734 53.1445 302.734 55.3197V170.248C302.734 172.423 303.464 174.337 304.913 175.968C306.392 177.631 308.419 178.444 310.93 178.444C313.124 178.444 315.045 177.616 316.671 175.989L316.318 175.635L316.671 175.989C318.298 174.362 319.127 172.442 319.127 170.248V95.596C319.127 88.8629 321.144 82.7231 325.188 77.1629C329.245 71.5849 334.486 67.1026 340.919 63.716C347.519 60.3319 354.452 58.6416 361.725 58.6416C369.868 58.6416 376.343 60.3385 381.194 63.684L381.194 63.684L381.201 63.6884C386.248 67.0533 389.859 71.5049 392.044 77.0521C394.242 82.6305 395.344 88.8098 395.344 95.596V170.248C395.344 172.423 396.073 174.337 397.523 175.968C399.002 177.631 401.029 178.444 403.54 178.444C405.734 178.444 407.654 177.616 409.281 175.989C410.908 174.362 411.736 172.442 411.736 170.248V94.8264C411.736 85.3674 410.189 76.754 407.085 68.993C404.142 61.0333 399.204 54.7924 392.275 50.2869C385.495 45.5954 376.407 43.2756 365.06 43.2756C358.838 43.2756 352.621 44.4855 346.411 46.8997C340.376 49.1421 334.856 52.3328 329.856 56.4704Z" fill="#F1FAEE" stroke="#F1FAEE"/>
<path fill-rule="evenodd" clip-rule="evenodd" d="M478.71 13.738C478.71 8.46455 480.164 4.18958 484.297 4.18958H562.035C566.167 4.18958 566.73 8.46455 566.73 13.738C566.73 19.0115 566.167 23.2864 562.035 23.2864H484.297C480.164 23.2864 478.71 19.0115 478.71 13.738Z" fill="#F1FAEE"/>
<path d="M810.34 237.187V238.331C809.949 237.892 809.518 237.471 809.048 237.067C807.842 235.996 806.418 235.153 804.782 234.534C803.135 233.911 801.361 233.602 799.463 233.602C796.543 233.602 793.878 234.378 791.481 235.93C789.088 237.437 787.188 239.541 785.78 242.225L785.78 242.225L785.779 242.228C784.408 244.881 783.73 247.94 783.73 251.391C783.73 254.801 784.408 257.859 785.777 260.552L785.777 260.552L785.78 260.558C787.188 263.241 789.085 265.384 791.473 266.976L791.473 266.976L791.479 266.98C793.878 268.535 796.587 269.31 799.592 269.31C801.407 269.31 803.099 268.999 804.662 268.374L804.662 268.374L804.669 268.371C806.252 267.712 807.626 266.894 808.785 265.913L808.785 265.913L808.793 265.906C809.367 265.398 809.883 264.871 810.34 264.326V265.532C810.34 266.379 810.618 267.123 811.178 267.733C811.755 268.362 812.516 268.667 813.411 268.667C814.269 268.667 815.002 268.359 815.572 267.741C816.175 267.135 816.482 266.389 816.482 265.532V237.187C816.482 236.333 816.176 235.602 815.564 235.033C814.996 234.421 814.265 234.116 813.411 234.116C812.52 234.116 811.761 234.418 811.186 235.041C810.616 235.614 810.34 236.343 810.34 237.187ZM805.549 261.966L805.549 261.966L805.544 261.969C804.006 263.022 802.221 263.553 800.17 263.553C798.121 263.553 796.313 263.022 794.73 261.968C793.179 260.906 791.95 259.476 791.044 257.665C790.18 255.813 789.744 253.725 789.744 251.391C789.744 249.014 790.202 246.929 791.105 245.123C792.011 243.311 793.239 241.903 794.787 240.884C796.372 239.869 798.162 239.358 800.17 239.358C802.221 239.358 804.006 239.89 805.544 240.942L805.55 240.946L805.557 240.95C807.142 241.966 808.367 243.391 809.23 245.24L809.23 245.24L809.236 245.252C810.14 247.06 810.597 249.103 810.597 251.391C810.597 253.724 810.139 255.811 809.234 257.663L809.232 257.668C808.369 259.475 807.142 260.904 805.549 261.966Z" fill="#F1FAEE" stroke="#F1FAEE"/>
<path d="M761.326 267.733L761.333 267.741L761.341 267.749C761.949 268.357 762.697 268.667 763.558 268.667C764.416 268.667 765.149 268.359 765.719 267.741C766.322 267.135 766.629 266.389 766.629 265.532V249.913C766.629 248.429 766.876 247.056 767.365 245.791C767.905 244.465 768.586 243.289 769.408 242.26C770.274 241.23 771.19 240.461 772.152 239.94L772.152 239.94L772.158 239.937C773.166 239.373 774.154 239.101 775.128 239.101C775.846 239.101 776.407 239.221 776.832 239.434L776.848 239.441L776.863 239.448C777.439 239.688 778.04 239.808 778.663 239.808C779.395 239.808 780.049 239.542 780.606 239.035C781.219 238.478 781.476 237.654 781.476 236.673C781.476 236.178 781.351 235.722 781.089 235.322C780.832 234.93 780.46 234.617 780.002 234.374C779.153 233.858 778.209 233.602 777.184 233.602C775.537 233.602 774.011 233.913 772.614 234.543C771.229 235.125 770 235.952 768.929 237.022C768.038 237.877 767.271 238.84 766.629 239.91V237.508C766.629 236.665 766.352 235.936 765.783 235.363C765.208 234.739 764.449 234.437 763.558 234.437C762.697 234.437 761.949 234.747 761.341 235.355C760.766 235.929 760.487 236.661 760.487 237.508V265.532C760.487 266.379 760.766 267.123 761.326 267.733Z" fill="#F1FAEE" stroke="#F1FAEE"/>
<path d="M721.643 260.633L721.643 260.633L721.646 260.639C723.188 263.325 725.262 265.445 727.866 266.99C730.477 268.538 733.394 269.31 736.606 269.31C739.817 269.31 742.713 268.539 745.282 266.989C747.886 265.444 749.94 263.323 751.438 260.636C752.985 257.939 753.753 254.874 753.753 251.456C753.753 248.037 752.985 244.972 751.438 242.275C749.94 239.588 747.886 237.467 745.282 235.922C742.713 234.373 739.817 233.602 736.606 233.602C733.394 233.602 730.477 234.373 727.866 235.921C725.262 237.466 723.188 239.586 721.646 242.273L721.646 242.273L721.643 242.278C720.14 244.975 719.395 248.038 719.395 251.456C719.395 254.873 720.14 257.936 721.643 260.633ZM746.125 245.131L746.125 245.131L746.129 245.139C747.112 246.94 747.611 249.041 747.611 251.456C747.611 253.826 747.112 255.906 746.129 257.708L746.129 257.708L746.125 257.716C745.179 259.524 743.868 260.957 742.188 262.023C740.561 263.04 738.705 263.553 736.606 263.553C734.509 263.553 732.631 263.041 730.959 262.023C729.321 260.957 728.007 259.522 727.018 257.708C726.035 255.906 725.536 253.826 725.536 251.456C725.536 249.041 726.036 246.94 727.018 245.139C728.007 243.325 729.32 241.913 730.955 240.89C732.628 239.871 734.507 239.358 736.606 239.358C738.705 239.358 740.562 239.871 742.19 240.889L742.19 240.889L742.194 240.892C743.871 241.914 745.18 243.324 746.125 245.131Z" fill="#F1FAEE" stroke="#F1FAEE"/>
<path d="M712.478 234.63H707.129V228.96C707.129 228.116 706.852 227.387 706.283 226.814C705.713 226.197 704.98 225.889 704.122 225.889C703.265 225.889 702.519 226.196 701.912 226.799C701.295 227.369 700.987 228.102 700.987 228.96V234.63H697.373C696.596 234.63 695.917 234.919 695.357 235.475C694.786 235.998 694.495 236.666 694.495 237.444C694.495 238.258 694.781 238.965 695.349 239.533C695.91 240.094 696.593 240.386 697.373 240.386H700.987V260.261C700.987 262.269 701.269 263.9 701.875 265.112L701.88 265.123L701.886 265.133C702.52 266.265 703.309 267.114 704.267 267.641C705.175 268.14 706.096 268.442 707.029 268.536L707.031 268.536C707.94 268.622 708.707 268.667 709.328 268.667C710.522 268.667 711.616 268.39 712.597 267.83L712.605 267.825L712.612 267.821C713.598 267.21 714.199 266.409 714.199 265.403C714.199 264.663 713.976 264.02 713.494 263.527C713.088 263.028 712.576 262.718 711.963 262.718C711.472 262.718 711.014 262.815 710.598 263.02C710.378 263.112 710.088 263.168 709.714 263.168C709.311 263.168 708.88 263.096 708.419 262.945C708.066 262.778 707.761 262.495 707.51 262.066C707.277 261.665 707.129 261 707.129 260.004V240.386H712.478C713.277 240.386 713.967 240.132 714.502 239.597C715.07 239.029 715.356 238.322 715.356 237.508C715.356 236.731 715.066 236.052 714.511 235.492C713.981 234.914 713.288 234.63 712.478 234.63Z" fill="#F1FAEE" stroke="#F1FAEE"/>
<path d="M687.881 241.981L687.892 241.988L687.903 241.995C688.385 242.262 688.969 242.379 689.624 242.379C690.424 242.379 691.087 242.048 691.567 241.408C692.007 240.821 692.245 240.182 692.245 239.501C692.245 238.279 691.625 237.225 690.513 236.345C689.415 235.476 687.953 234.808 686.155 234.326C684.348 233.841 682.332 233.602 680.112 233.602C676.732 233.602 673.745 234.393 671.171 235.991C668.611 237.58 666.601 239.723 665.146 242.412L665.146 242.412L665.143 242.418C663.731 245.11 663.029 248.127 663.029 251.456C663.029 254.782 663.708 257.816 665.075 260.549L665.074 260.549L665.079 260.558C666.49 263.248 668.457 265.392 670.975 266.983L670.975 266.983L670.98 266.986C673.512 268.54 676.455 269.31 679.791 269.31C682.146 269.31 684.257 269.004 686.117 268.385C687.994 267.773 689.511 267.021 690.644 266.115C691.746 265.233 692.438 264.29 692.438 263.282C692.438 262.487 692.187 261.789 691.674 261.22C691.175 260.616 690.465 260.34 689.624 260.34C688.825 260.34 688.135 260.594 687.6 261.129L687.59 261.138L687.582 261.148C687.247 261.52 686.721 261.916 685.975 262.331L685.975 262.331L685.97 262.334C685.415 262.651 684.705 262.937 683.831 263.187C682.994 263.426 681.847 263.553 680.369 263.553C678.139 263.553 676.199 263.018 674.531 261.96C672.85 260.894 671.538 259.461 670.593 257.651C669.649 255.846 669.171 253.785 669.171 251.456C669.171 249.13 669.669 247.071 670.653 245.268C671.641 243.455 672.975 242.02 674.657 240.953C676.368 239.894 678.352 239.358 680.626 239.358C681.582 239.358 682.539 239.441 683.497 239.608C684.458 239.775 685.141 239.998 685.58 240.254L685.601 240.266L685.623 240.276C686.137 240.513 686.501 240.776 686.741 241.051L686.752 241.064L686.764 241.075C687.129 241.44 687.501 241.744 687.881 241.981Z" fill="#F1FAEE" stroke="#F1FAEE"/>
<path d="M652.492 265.503L652.492 265.503C649.974 267.975 646.47 269.181 642.051 269.181C637.672 269.181 634.171 267.974 631.612 265.506L631.606 265.5L631.606 265.5C629.089 262.982 627.86 259.477 627.86 255.055V237.508C627.86 236.661 628.14 235.929 628.714 235.355M652.492 265.503L628.714 235.355M652.492 265.503C655.054 262.986 656.305 259.48 656.305 255.055V237.508C656.305 236.665 656.028 235.936 655.459 235.363C654.884 234.739 654.125 234.437 653.234 234.437C652.373 234.437 651.625 234.747 651.017 235.355C650.443 235.929 650.163 236.661 650.163 237.508V255.055C650.163 257.887 649.436 259.946 648.06 261.322L648.06 261.322L648.055 261.327C646.721 262.701 644.747 263.425 642.051 263.425C639.446 263.425 637.488 262.704 636.105 261.322C634.73 259.946 634.002 257.887 634.002 255.055V237.508C634.002 236.665 633.726 235.936 633.156 235.363M652.492 265.503L633.156 235.363M628.714 235.355C629.322 234.747 630.071 234.437 630.931 234.437C631.822 234.437 632.581 234.739 633.156 235.363M628.714 235.355L633.156 235.363" fill="#F1FAEE" stroke="#F1FAEE"/>
<path d="M612.184 223.175V238.392C611.772 237.932 611.32 237.49 610.827 237.068C609.621 235.996 608.197 235.153 606.562 234.534C604.916 233.912 603.163 233.602 601.307 233.602C598.386 233.602 595.721 234.378 593.325 235.93C590.932 237.438 589.032 239.541 587.624 242.225L587.624 242.225L587.621 242.231C586.252 244.925 585.574 248.004 585.574 251.456C585.574 254.866 586.252 257.923 587.621 260.616L587.621 260.616L587.624 260.622C589.032 263.307 590.931 265.43 593.322 266.98L593.326 266.982C595.765 268.534 598.472 269.31 601.436 269.31C603.254 269.31 604.949 268.977 606.515 268.306C608.101 267.645 609.477 266.803 610.637 265.778C611.211 265.27 611.727 264.743 612.184 264.197V265.532C612.184 266.379 612.462 267.123 613.022 267.734C613.599 268.363 614.359 268.667 615.254 268.667C616.112 268.667 616.846 268.359 617.415 267.742C618.018 267.135 618.325 266.389 618.325 265.532V223.175C618.325 222.321 618.02 221.591 617.408 221.022C616.839 220.41 616.109 220.105 615.254 220.105C614.363 220.105 613.605 220.406 613.029 221.03C612.46 221.603 612.184 222.332 612.184 223.175ZM611.077 257.728L611.075 257.732C610.213 259.539 608.986 260.968 607.394 262.03C605.856 263.042 604.068 263.554 602.014 263.554C600.01 263.554 598.222 263.024 596.638 261.968C595.086 260.906 593.857 259.475 592.95 257.662C592.044 255.809 591.588 253.743 591.588 251.456C591.588 249.079 592.046 246.994 592.949 245.188C593.855 243.375 595.084 241.966 596.633 240.947L596.635 240.945C598.22 239.889 600.008 239.358 602.014 239.358C604.065 239.358 605.85 239.89 607.388 240.942L607.394 240.946L607.4 240.95C608.989 241.969 610.213 243.374 611.075 245.18L611.075 245.18L611.079 245.188C611.982 246.994 612.441 249.079 612.441 251.456C612.441 253.788 611.983 255.876 611.077 257.728Z" fill="#F1FAEE" stroke="#F1FAEE"/>
<path d="M548.53 260.633L548.53 260.633L548.533 260.639C550.074 263.325 552.149 265.445 554.753 266.99C557.363 268.539 560.281 269.31 563.492 269.31C566.703 269.31 569.6 268.539 572.169 266.989C574.773 265.444 576.826 263.324 578.325 260.636C579.872 257.939 580.639 254.874 580.639 251.456C580.639 248.037 579.872 244.973 578.325 242.276C576.826 239.588 574.773 237.468 572.169 235.922C569.6 234.373 566.703 233.602 563.492 233.602C560.281 233.602 557.363 234.373 554.753 235.921C552.149 237.466 550.074 239.586 548.533 242.273L548.533 242.273L548.53 242.278C547.027 244.975 546.281 248.039 546.281 251.456C546.281 254.873 547.027 257.937 548.53 260.633ZM573.012 245.132L573.012 245.132L573.016 245.139C573.998 246.94 574.497 249.041 574.497 251.456C574.497 253.826 573.999 255.906 573.016 257.708L573.016 257.708L573.012 257.716C572.066 259.525 570.755 260.958 569.075 262.023C567.447 263.04 565.591 263.553 563.492 263.553C561.396 263.553 559.518 263.041 557.846 262.023C556.208 260.957 554.894 259.522 553.905 257.708C552.922 255.906 552.423 253.826 552.423 251.456C552.423 249.041 552.922 246.94 553.905 245.139C554.894 243.325 556.206 241.913 557.842 240.89C559.515 239.871 561.394 239.358 563.492 239.358C565.592 239.358 567.448 239.871 569.076 240.889L569.076 240.889L569.081 240.892C570.758 241.914 572.067 243.324 573.012 245.132Z" fill="#F1FAEE" stroke="#F1FAEE"/>
<path d="M524.567 267.734L524.574 267.742L524.582 267.749C525.19 268.357 525.939 268.667 526.799 268.667C527.657 268.667 528.391 268.359 528.96 267.742C529.563 267.135 529.87 266.389 529.87 265.532V249.913C529.87 248.429 530.117 247.056 530.606 245.791C531.146 244.465 531.827 243.289 532.649 242.26C533.515 241.23 534.431 240.462 535.393 239.941L535.393 239.941L535.399 239.937C536.407 239.373 537.395 239.101 538.369 239.101C539.088 239.101 539.648 239.221 540.073 239.434L540.089 239.442L540.105 239.448C540.68 239.688 541.281 239.808 541.904 239.808C542.636 239.808 543.29 239.542 543.847 239.035C544.46 238.478 544.718 237.654 544.718 236.673C544.718 236.178 544.593 235.722 544.331 235.322C544.073 234.93 543.701 234.617 543.244 234.374C542.394 233.858 541.451 233.602 540.425 233.602C538.778 233.602 537.252 233.914 535.855 234.543C534.471 235.125 533.241 235.952 532.17 237.023C531.279 237.877 530.512 238.84 529.87 239.91V237.508C529.87 236.665 529.594 235.936 529.025 235.363C528.449 234.739 527.691 234.437 526.799 234.437C525.939 234.437 525.19 234.747 524.582 235.355C524.008 235.929 523.729 236.661 523.729 237.508V265.532C523.729 266.379 524.007 267.123 524.567 267.734Z" fill="#F1FAEE" stroke="#F1FAEE"/>
<path d="M492.165 250.606V265.532C492.165 266.379 491.886 267.123 491.326 267.734L490.958 267.396L491.326 267.734C490.756 268.356 490.02 268.667 489.158 268.667C488.263 268.667 487.502 268.363 486.926 267.734L486.918 267.725L486.91 267.716C486.4 267.104 486.151 266.366 486.151 265.532V225.746C486.151 224.899 486.431 224.167 487.005 223.593L492.165 250.606ZM492.165 250.606H504.262C506.709 250.606 508.924 249.982 510.894 248.728C512.855 247.48 514.392 245.786 515.502 243.656C516.657 241.521 517.231 239.147 517.231 236.544C517.231 233.9 516.658 231.524 515.5 229.429C514.388 227.34 512.85 225.689 510.887 224.485C508.918 223.276 506.705 222.675 504.262 222.675H489.222C488.362 222.675 487.613 222.985 487.005 223.593L492.165 250.606ZM507.698 229.687L507.698 229.687L507.709 229.695C508.706 230.373 509.509 231.293 510.117 232.468C510.717 233.629 511.025 234.983 511.025 236.544C511.025 238.015 510.719 239.376 510.111 240.633C509.5 241.895 508.694 242.877 507.698 243.594C506.718 244.3 505.579 244.657 504.262 244.657H492.165V228.624H504.262C505.579 228.624 506.718 228.982 507.698 229.687Z" fill="#F1FAEE" stroke="#F1FAEE"/>
<path d="M452.88 237.187V238.331C452.489 237.893 452.058 237.471 451.588 237.067C450.382 235.996 448.958 235.153 447.322 234.534C445.676 233.911 443.901 233.602 442.003 233.602C439.083 233.602 436.418 234.378 434.021 235.93C431.628 237.438 429.728 239.541 428.32 242.225L428.32 242.225L428.319 242.228C426.948 244.881 426.271 247.94 426.271 251.392C426.271 254.801 426.949 257.859 428.317 260.552L428.317 260.552L428.32 260.558C429.728 263.241 431.625 265.384 434.013 266.976L434.013 266.976L434.019 266.98C436.418 268.535 439.127 269.31 442.132 269.31C443.947 269.31 445.639 269 447.202 268.374L447.202 268.374L447.209 268.371C448.792 267.712 450.166 266.894 451.325 265.913L451.325 265.914L451.333 265.906C451.907 265.398 452.423 264.871 452.88 264.326V265.532C452.88 266.379 453.158 267.123 453.718 267.734C454.295 268.363 455.056 268.667 455.951 268.667C456.809 268.667 457.542 268.359 458.112 267.742C458.715 267.135 459.022 266.389 459.022 265.532V237.187C459.022 236.333 458.716 235.602 458.104 235.034C457.536 234.422 456.805 234.116 455.951 234.116C455.06 234.116 454.301 234.418 453.726 235.042C453.156 235.615 452.88 236.343 452.88 237.187ZM448.089 261.966L448.089 261.966L448.084 261.97C446.546 263.022 444.761 263.553 442.71 263.553C440.661 263.553 438.853 263.022 437.27 261.968C435.719 260.906 434.49 259.476 433.584 257.666C432.721 255.813 432.284 253.725 432.284 251.392C432.284 249.014 432.742 246.929 433.645 245.124C434.551 243.311 435.779 241.903 437.327 240.884C438.912 239.869 440.702 239.358 442.71 239.358C444.761 239.358 446.546 239.89 448.084 240.942L448.09 240.946L448.097 240.95C449.682 241.967 450.907 243.391 451.77 245.24L451.77 245.24L451.776 245.252C452.68 247.06 453.137 249.103 453.137 251.392C453.137 253.724 452.679 255.811 451.774 257.664L451.772 257.668C450.909 259.475 449.682 260.904 448.089 261.966Z" fill="#F1FAEE" stroke="#F1FAEE"/>
<path d="M395.352 263.181L395.36 263.193L395.369 263.204C397.088 265.409 399.129 266.989 401.492 267.925L401.495 267.926C403.863 268.847 406.26 269.31 408.682 269.31C410.84 269.31 412.854 268.935 414.718 268.181L414.718 268.181L414.724 268.178C416.636 267.378 418.186 266.236 419.358 264.749L419.358 264.749L419.363 264.743C420.549 263.192 421.137 261.369 421.137 259.297C421.137 257.53 420.828 256.029 420.179 254.822C419.544 253.598 418.678 252.594 417.583 251.819C416.515 251.062 415.316 250.463 413.992 250.021C412.735 249.544 411.415 249.133 410.032 248.787C408.546 248.363 407.188 247.938 405.96 247.515C404.768 247.062 403.851 246.497 403.186 245.832C402.56 245.206 402.216 244.391 402.176 243.348C402.178 242.196 402.475 241.372 403.004 240.807C403.628 240.145 404.388 239.676 405.292 239.401C406.231 239.115 407.189 238.973 408.168 238.973C409.733 238.973 411.14 239.261 412.397 239.828L412.405 239.832L412.414 239.836C413.715 240.364 414.782 241.131 415.626 242.136L415.64 242.153L415.655 242.168C416.128 242.641 416.712 242.904 417.385 242.956L417.387 242.956C418.101 243.007 418.754 242.826 419.324 242.412L419.34 242.4L419.355 242.387C420.045 241.796 420.42 241.075 420.364 240.239C420.315 239.503 420.067 238.86 419.603 238.34C418.623 237.14 417.482 236.199 416.18 235.525C414.899 234.819 413.569 234.33 412.193 234.063C410.877 233.756 409.599 233.602 408.36 233.602C406.198 233.602 404.181 233.999 402.315 234.799L402.315 234.799L402.311 234.801C400.482 235.604 398.998 236.747 397.871 238.235L397.871 238.235L397.865 238.243C396.768 239.751 396.227 241.528 396.227 243.55C396.227 245.244 396.561 246.724 397.254 247.971L397.259 247.981L397.265 247.99C397.986 249.161 398.91 250.152 400.034 250.962L400.043 250.968L400.053 250.974C401.2 251.725 402.476 252.362 403.879 252.888L403.878 252.888L403.892 252.893C405.273 253.368 406.676 253.799 408.1 254.188L408.1 254.188L408.111 254.19C409.462 254.528 410.703 254.928 411.835 255.39L411.843 255.393L411.85 255.395C412.953 255.804 413.83 256.347 414.499 257.016L414.504 257.021L414.509 257.026C415.118 257.599 415.445 258.398 415.445 259.49C415.445 260.628 415.115 261.505 414.489 262.168L414.488 262.168C413.868 262.827 413.09 263.297 412.141 263.573C411.153 263.862 410.168 264.026 409.186 264.068C407.024 264.066 405.228 263.671 403.778 262.907C402.293 262.081 400.969 260.985 399.808 259.616L399.801 259.609L399.795 259.602C399.252 259.01 398.604 258.659 397.857 258.606C397.194 258.555 396.586 258.709 396.056 259.079C395.286 259.609 394.806 260.29 394.75 261.127C394.698 261.854 394.91 262.543 395.352 263.181Z" fill="#F1FAEE" stroke="#F1FAEE"/>
<path d="M382.456 237.187V238.331C382.066 237.892 381.635 237.471 381.164 237.067C379.958 235.996 378.534 235.153 376.898 234.534C375.252 233.911 373.477 233.602 371.58 233.602C368.659 233.602 365.994 234.378 363.597 235.93C361.204 237.438 359.305 239.541 357.896 242.225L357.896 242.225L357.895 242.228C356.524 244.881 355.847 247.94 355.847 251.392C355.847 254.801 356.525 257.859 357.893 260.552L357.893 260.552L357.896 260.558C359.304 263.241 361.202 265.384 363.589 266.976L363.589 266.976L363.595 266.98C365.994 268.535 368.704 269.31 371.708 269.31C373.523 269.31 375.215 269 376.779 268.374L376.779 268.374L376.785 268.371C378.368 267.712 379.742 266.894 380.901 265.913L380.901 265.914L380.909 265.906C381.483 265.398 381.999 264.871 382.456 264.326V265.532C382.456 266.379 382.735 267.123 383.294 267.734C383.871 268.363 384.632 268.667 385.527 268.667C386.385 268.667 387.118 268.359 387.688 267.742C388.291 267.135 388.598 266.389 388.598 265.532V237.187C388.598 236.333 388.292 235.602 387.68 235.034C387.112 234.422 386.381 234.116 385.527 234.116C384.636 234.116 383.878 234.418 383.302 235.042C382.733 235.615 382.456 236.343 382.456 237.187ZM377.665 261.966L377.665 261.966L377.66 261.97C376.122 263.022 374.337 263.553 372.287 263.553C370.237 263.553 368.429 263.022 366.846 261.968C365.296 260.906 364.067 259.476 363.16 257.666C362.297 255.813 361.86 253.725 361.86 251.392C361.86 249.014 362.318 246.929 363.221 245.124C364.127 243.311 365.355 241.903 366.903 240.884C368.488 239.869 370.278 239.358 372.287 239.358C374.337 239.358 376.122 239.89 377.66 240.942L377.666 240.946L377.673 240.95C379.258 241.967 380.483 243.391 381.346 245.24L381.346 245.24L381.352 245.252C382.256 247.06 382.713 249.103 382.713 251.392C382.713 253.724 382.255 255.811 381.35 257.664L381.348 257.668C380.485 259.475 379.258 260.904 377.665 261.966Z" fill="#F1FAEE" stroke="#F1FAEE"/>
<path d="M342.206 268.85C343.731 268.545 345.192 268.131 346.589 267.607L346.589 267.607L346.602 267.602C347.986 267.04 349.226 266.432 350.319 265.777C351.13 265.366 351.635 264.703 351.791 263.819L351.792 263.814C351.945 262.894 351.708 262.03 351.12 261.247L351.112 261.237L351.104 261.227C350.606 260.628 349.984 260.257 349.248 260.152C348.537 260.05 347.835 260.181 347.154 260.521L347.134 260.531L347.115 260.543C345.696 261.419 344.195 262.086 342.611 262.545C341.03 263.003 339.384 263.232 337.673 263.232C335.288 263.232 333.079 262.835 331.042 262.045C329.05 261.257 327.287 260.116 325.75 258.622C324.259 257.088 323.073 255.239 322.196 253.068C321.324 250.909 320.883 248.446 320.883 245.671C320.883 243.069 321.303 240.711 322.134 238.591C322.968 236.464 324.133 234.636 325.626 233.101C327.12 231.566 328.882 230.383 330.92 229.551L330.92 229.552L330.928 229.548C332.959 228.678 335.205 228.239 337.673 228.239C339.424 228.239 341.087 228.489 342.664 228.987L342.664 228.987L342.675 228.99C344.263 229.45 345.743 230.097 347.119 230.93L347.136 230.941L347.154 230.95C347.825 231.285 348.514 231.437 349.213 231.387C349.979 231.332 350.598 230.942 351.057 230.287C351.644 229.547 351.878 228.707 351.73 227.798C351.622 226.864 351.114 226.155 350.265 225.7C348.469 224.563 346.479 223.69 344.3 223.08C342.156 222.467 339.946 222.161 337.673 222.161C334.397 222.161 331.332 222.751 328.483 223.935L328.482 223.935L328.48 223.936C325.68 225.117 323.207 226.759 321.061 228.86L321.061 228.86L321.058 228.864C318.953 230.968 317.31 233.445 316.129 236.288C314.944 239.14 314.355 242.27 314.355 245.671C314.355 249.284 314.965 252.565 316.194 255.505L316.194 255.505L316.197 255.513C317.465 258.398 319.173 260.874 321.322 262.936C323.47 264.996 325.947 266.574 328.749 267.669C331.553 268.764 334.528 269.31 337.673 269.31C339.205 269.31 340.717 269.156 342.206 268.85ZM342.206 268.85C342.207 268.85 342.208 268.85 342.208 268.849L342.107 268.36L342.206 268.85C342.206 268.85 342.206 268.85 342.206 268.85Z" fill="#F1FAEE" stroke="#F1FAEE"/>
<path d="M259.55 135.554C259.55 204.924 203.315 261.16 133.945 261.16C64.5744 261.16 8.33887 204.924 8.33887 135.554C8.33887 66.1838 64.5744 9.94812 133.945 9.94812C203.315 9.94812 259.55 66.1838 259.55 135.554Z" stroke="#F1FAEE" stroke-width="7"/>
<g filter="url(#filter1_d_74_455)">
<path d="M134.131 135.368C102.239 92.3283 101.612 70.3127 134.131 16.3673C167.935 65.093 167.63 91.0613 134.131 135.368ZM134.131 135.368C181.561 104.84 207.394 104.645 252.039 135.368C204.825 167.806 179.105 165.154 134.131 135.368ZM134.131 135.368C165.819 179.833 165.832 205.849 134.131 254.219C100.985 209.185 101.242 183.198 134.131 135.368ZM134.131 135.368C89.5503 104.211 63.51 103.552 15.0234 135.368C62.3677 168.901 88.4847 168.684 134.131 135.368Z" stroke="#F1FAEE" stroke-width="7" shape-rendering="crispEdges"/>
</g>
<g filter="url(#filter2_d_74_455)">
<circle cx="197.15" cy="74.578" r="6.90726" fill="#F1FAEE"/>
<circle cx="197.15" cy="74.578" r="5.40726" stroke="#F1FAEE" stroke-width="3"/>
</g>
<g filter="url(#filter3_d_74_455)">
<circle cx="69.8057" cy="74.578" r="6.90726" fill="#F1FAEE"/>
<circle cx="69.8057" cy="74.578" r="5.40726" stroke="#F1FAEE" stroke-width="3"/>
</g>
<g filter="url(#filter4_d_74_455)">
<circle cx="69.8057" cy="197.917" r="6.90726" fill="#F1FAEE"/>
<circle cx="69.8057" cy="197.917" r="5.40726" stroke="#F1FAEE" stroke-width="3"/>
</g>
<g filter="url(#filter5_d_74_455)">
<circle cx="197.15" cy="197.917" r="6.90726" fill="#F1FAEE"/>
<circle cx="197.15" cy="197.917" r="5.40726" stroke="#F1FAEE" stroke-width="3"/>
</g>
</g>
<defs>
<filter id="filter0_d_74_455" x="0.838867" y="0.190369" width="1015.32" height="277.619" filterUnits="userSpaceOnUse" color-interpolation-filters="sRGB">
<feFlood flood-opacity="0" result="BackgroundImageFix"/>
<feColorMatrix in="SourceAlpha" type="matrix" values="0 0 0 0 0 0 0 0 0 0 0 0 0 0 0 0 0 0 127 0" result="hardAlpha"/>
<feOffset dy="4"/>
<feGaussianBlur stdDeviation="2"/>
<feComposite in2="hardAlpha" operator="out"/>
<feColorMatrix type="matrix" values="0 0 0 0 0.24 0 0 0 0 0.33375 0 0 0 0 0.36 0 0 0 0.3 0"/>
<feBlend mode="normal" in2="BackgroundImageFix" result="effect1_dropShadow_74_455"/>
<feBlend mode="normal" in="SourceGraphic" in2="effect1_dropShadow_74_455" result="shape"/>
</filter>
<filter id="filter1_d_74_455" x="4.8125" y="9.92993" width="257.403" height="258.42" filterUnits="userSpaceOnUse" color-interpolation-filters="sRGB">
<feFlood flood-opacity="0" result="BackgroundImageFix"/>
<feColorMatrix in="SourceAlpha" type="matrix" values="0 0 0 0 0 0 0 0 0 0 0 0 0 0 0 0 0 0 127 0" result="hardAlpha"/>
<feOffset dy="4"/>
<feGaussianBlur stdDeviation="2"/>
<feComposite in2="hardAlpha" operator="out"/>
<feColorMatrix type="matrix" values="0 0 0 0 0 0 0 0 0 0 0 0 0 0 0 0 0 0 0.25 0"/>
<feBlend mode="normal" in2="BackgroundImageFix" result="effect1_dropShadow_74_455"/>
<feBlend mode="normal" in="SourceGraphic" in2="effect1_dropShadow_74_455" result="shape"/>
</filter>
<filter id="filter2_d_74_455" x="186.243" y="67.6708" width="21.8145" height="21.8145" filterUnits="userSpaceOnUse" color-interpolation-filters="sRGB">
<feFlood flood-opacity="0" result="BackgroundImageFix"/>
<feColorMatrix in="SourceAlpha" type="matrix" values="0 0 0 0 0 0 0 0 0 0 0 0 0 0 0 0 0 0 127 0" result="hardAlpha"/>
<feOffset dy="4"/>
<feGaussianBlur stdDeviation="2"/>
<feComposite in2="hardAlpha" operator="out"/>
<feColorMatrix type="matrix" values="0 0 0 0 0 0 0 0 0 0 0 0 0 0 0 0 0 0 0.25 0"/>
<feBlend mode="normal" in2="BackgroundImageFix" result="effect1_dropShadow_74_455"/>
<feBlend mode="normal" in="SourceGraphic" in2="effect1_dropShadow_74_455" result="shape"/>
</filter>
<filter id="filter3_d_74_455" x="58.8984" y="67.6708" width="21.8145" height="21.8145" filterUnits="userSpaceOnUse" color-interpolation-filters="sRGB">
<feFlood flood-opacity="0" result="BackgroundImageFix"/>
<feColorMatrix in="SourceAlpha" type="matrix" values="0 0 0 0 0 0 0 0 0 0 0 0 0 0 0 0 0 0 127 0" result="hardAlpha"/>
<feOffset dy="4"/>
<feGaussianBlur stdDeviation="2"/>
<feComposite in2="hardAlpha" operator="out"/>
<feColorMatrix type="matrix" values="0 0 0 0 0 0 0 0 0 0 0 0 0 0 0 0 0 0 0.25 0"/>
<feBlend mode="normal" in2="BackgroundImageFix" result="effect1_dropShadow_74_455"/>
<feBlend mode="normal" in="SourceGraphic" in2="effect1_dropShadow_74_455" result="shape"/>
</filter>
<filter id="filter4_d_74_455" x="58.8984" y="191.01" width="21.8145" height="21.8145" filterUnits="userSpaceOnUse" color-interpolation-filters="sRGB">
<feFlood flood-opacity="0" result="BackgroundImageFix"/>
<feColorMatrix in="SourceAlpha" type="matrix" values="0 0 0 0 0 0 0 0 0 0 0 0 0 0 0 0 0 0 127 0" result="hardAlpha"/>
<feOffset dy="4"/>
<feGaussianBlur stdDeviation="2"/>
<feComposite in2="hardAlpha" operator="out"/>
<feColorMatrix type="matrix" values="0 0 0 0 0 0 0 0 0 0 0 0 0 0 0 0 0 0 0.25 0"/>
<feBlend mode="normal" in2="BackgroundImageFix" result="effect1_dropShadow_74_455"/>
<feBlend mode="normal" in="SourceGraphic" in2="effect1_dropShadow_74_455" result="shape"/>
</filter>
<filter id="filter5_d_74_455" x="186.243" y="191.01" width="21.8145" height="21.8145" filterUnits="userSpaceOnUse" color-interpolation-filters="sRGB">
<feFlood flood-opacity="0" result="BackgroundImageFix"/>
<feColorMatrix in="SourceAlpha" type="matrix" values="0 0 0 0 0 0 0 0 0 0 0 0 0 0 0 0 0 0 127 0" result="hardAlpha"/>
<feOffset dy="4"/>
<feGaussianBlur stdDeviation="2"/>
<feComposite in2="hardAlpha" operator="out"/>
<feColorMatrix type="matrix" values="0 0 0 0 0 0 0 0 0 0 0 0 0 0 0 0 0 0 0.25 0"/>
<feBlend mode="normal" in2="BackgroundImageFix" result="effect1_dropShadow_74_455"/>
<feBlend mode="normal" in="SourceGraphic" in2="effect1_dropShadow_74_455" result="shape"/>
</filter>
</defs>
</svg>
