<svg width="420" height="108" viewBox="0 0 420 108" fill="none" xmlns="http://www.w3.org/2000/svg">
<path d="M400.803 33.9738V41.1499C399.532 39.087 397.975 37.2007 396.135 35.4918C393.381 32.9346 390.139 30.9216 386.414 29.4509C382.775 27.976 378.846 27.2409 374.632 27.2409C368.068 27.2409 362.175 28.9078 356.968 32.2484C351.767 35.5845 347.651 40.1941 344.618 46.0635C341.58 51.8476 340.068 58.5489 340.068 66.153C340.068 73.5646 341.532 80.2609 344.468 86.232L344.468 86.232L344.471 86.2378C347.503 92.2036 351.618 96.9102 356.817 100.344L356.821 100.346C362.125 103.784 368.115 105.5 374.777 105.5C378.896 105.5 382.731 104.764 386.275 103.287L386.281 103.285C389.904 101.718 393.045 99.7073 395.7 97.2495C397.75 95.3512 399.452 93.3304 400.803 91.1865V99.2019C400.803 100.484 401.235 101.617 402.089 102.578L402.099 102.589L402.109 102.599C403.075 103.565 404.266 104.05 405.651 104.05C406.952 104.05 408.092 103.557 409.049 102.599C410.006 101.642 410.5 100.503 410.5 99.2019V33.9738C410.5 32.5931 410.018 31.4055 409.059 30.4417C408.184 29.4634 407.033 28.9803 405.651 28.9803C404.266 28.9803 403.075 29.4656 402.109 30.4313L402.099 30.4417L402.089 30.4527C401.228 31.4215 400.803 32.6057 400.803 33.9738ZM397.955 51.0079L397.955 51.008L397.959 51.0155C400.238 55.479 401.383 60.5212 401.383 66.153C401.383 71.8825 400.237 77.0727 397.955 81.7327L397.953 81.7366C395.766 86.3003 392.731 89.9014 388.848 92.5537C384.975 95.1032 380.532 96.3826 375.502 96.3826C370.471 96.3826 366.028 95.1032 362.155 92.5537C358.272 89.9011 355.188 86.2993 352.904 81.7346C350.718 77.0744 349.62 71.8833 349.62 66.153C349.62 60.3236 350.719 55.1839 352.902 50.7219C355.184 46.2538 358.267 42.7481 362.149 40.1909C366.123 37.6369 370.569 36.3582 375.502 36.3582C380.53 36.3582 384.972 37.6846 388.845 40.3297C392.732 42.984 395.768 46.5395 397.955 51.0079Z" fill="white" stroke="white"/>
<path d="M226.288 36.2092C224.637 37.6774 223.174 39.2613 221.902 40.961V34.2637C221.902 32.9675 221.412 31.8316 220.461 30.8765C219.587 29.8983 218.435 29.4152 217.054 29.4152C215.668 29.4152 214.477 29.9005 213.511 30.8662L213.501 30.8766L213.491 30.8876C212.637 31.8484 212.205 32.9812 212.205 34.2637V99.2018C212.205 100.484 212.637 101.617 213.491 102.578C214.375 103.572 215.584 104.05 217.054 104.05C218.355 104.05 219.494 103.557 220.451 102.599C221.408 101.642 221.902 100.503 221.902 99.2018V58.1807C221.902 54.3156 222.937 50.8387 225.004 47.7359C227.18 44.6153 229.969 42.1575 233.377 40.359L233.377 40.359L233.381 40.3567C236.885 38.4624 240.573 37.5178 244.449 37.5178C248.826 37.5178 252.237 38.4695 254.733 40.3186L254.733 40.3187L254.743 40.3257C257.263 42.0991 259.087 44.5259 260.214 47.6251C261.351 50.751 261.923 54.2674 261.923 58.1807V99.2018C261.923 100.484 262.355 101.617 263.209 102.578L263.219 102.589L263.229 102.599C264.195 103.565 265.386 104.05 266.772 104.05C268.153 104.05 269.305 103.567 270.18 102.589C271.13 101.634 271.62 100.498 271.62 99.2018V58.6155C271.62 54.7552 272.701 51.2303 274.866 48.0284C277.139 44.8092 280.026 42.2535 283.532 40.358C287.135 38.4621 290.871 37.5178 294.747 37.5178C299.222 37.5178 302.733 38.4701 305.328 40.3237C307.949 42.1959 309.872 44.7234 311.095 47.9227C312.327 51.1445 312.946 54.7069 312.946 58.6155V99.2018C312.946 100.484 313.378 101.617 314.232 102.578L314.242 102.589L314.252 102.599C315.218 103.565 316.409 104.05 317.795 104.05C319.176 104.05 320.328 103.567 321.203 102.589C322.153 101.634 322.643 100.498 322.643 99.2018V58.1807C322.643 52.6224 321.766 47.6315 320.001 43.2159C318.324 38.6819 315.557 35.073 311.704 32.4048C307.922 29.7189 302.931 28.4005 296.777 28.4005C292.843 28.4005 288.962 29.1877 285.136 30.7572C281.318 32.3234 277.889 34.4295 274.851 37.0752C272.5 39.1128 270.669 41.2861 269.369 43.5973C267.67 39.2121 265.119 35.7653 261.706 33.2817C257.357 30.0212 252.128 28.4005 246.044 28.4005C242.305 28.4005 238.712 29.1386 235.269 30.6138C231.934 31.9875 228.939 33.8528 226.288 36.2092Z" fill="white" stroke="white"/>
<path d="M182.201 102.578L182.21 102.589L182.221 102.599C183.187 103.565 184.378 104.05 185.763 104.05C187.064 104.05 188.204 103.557 189.161 102.599C190.118 101.642 190.612 100.503 190.612 99.2019V32.5243C190.612 31.2281 190.122 30.0922 189.171 29.1371C188.296 28.1589 187.144 27.6758 185.763 27.6758C184.378 27.6758 183.187 28.1611 182.221 29.1268L182.21 29.1372L182.201 29.1482C181.347 30.1091 180.915 31.2418 180.915 32.5243V99.2019C180.915 100.484 181.347 101.617 182.201 102.578ZM193.366 15.6115L193.382 15.6291L193.399 15.6451C194.582 16.7204 196.216 17.2247 198.229 17.2247C200.154 17.2247 201.736 16.7164 202.914 15.6451C204.114 14.5545 204.672 12.9493 204.672 10.9266V9.47709C204.672 7.55139 204.114 6.00474 202.932 4.91959C201.846 3.73712 200.3 3.17905 198.374 3.17905C196.353 3.17905 194.716 3.73584 193.535 4.91158C192.347 5.99713 191.786 7.54665 191.786 9.47709V10.9266C191.786 12.8513 192.294 14.4331 193.366 15.6115ZM168.595 15.6287C169.689 16.7219 171.288 17.2247 173.297 17.2247C175.222 17.2247 176.804 16.7164 177.982 15.6451C179.182 14.5545 179.74 12.9493 179.74 10.9266V9.47709C179.74 7.55138 179.182 6.00472 178 4.91957C176.91 3.73201 175.31 3.17905 173.297 3.17905C171.365 3.17905 169.78 3.74054 168.604 4.91157C167.415 5.99712 166.854 7.54665 166.854 9.47709V10.9266C166.854 12.864 167.419 14.452 168.595 15.6287Z" fill="white" stroke="white"/>
<path d="M149.686 33.9738V41.1499C148.415 39.087 146.858 37.2007 145.018 35.4918C142.264 32.9346 139.022 30.9216 135.297 29.4509C131.658 27.976 127.729 27.2409 123.515 27.2409C116.951 27.2409 111.058 28.9078 105.851 32.2484C100.65 35.5845 96.5341 40.1942 93.5012 46.0636C90.4625 51.8477 88.9512 58.549 88.9512 66.153C88.9512 73.5646 90.4144 80.2609 93.351 86.232L93.351 86.232L93.354 86.2378C96.3858 92.2036 100.501 96.9102 105.7 100.344L105.704 100.346C111.008 103.784 116.998 105.5 123.66 105.5C127.779 105.5 131.614 104.764 135.158 103.287L135.164 103.285C138.787 101.718 141.928 99.7073 144.582 97.2495C146.633 95.3512 148.335 93.3304 149.686 91.1865V99.2019C149.686 100.484 150.118 101.617 150.972 102.578L150.981 102.589L150.992 102.599C151.957 103.565 153.149 104.05 154.534 104.05C155.835 104.05 156.975 103.557 157.932 102.599C158.889 101.642 159.383 100.503 159.383 99.2019V33.9738C159.383 32.5931 158.901 31.4055 157.942 30.4417C157.067 29.4634 155.915 28.9803 154.534 28.9803C153.149 28.9803 151.957 29.4656 150.992 30.4313L150.981 30.4417L150.972 30.4527C150.11 31.4215 149.686 32.6057 149.686 33.9738ZM146.838 51.0079L146.838 51.008L146.841 51.0155C149.121 55.479 150.266 60.5212 150.266 66.153C150.266 71.8825 149.12 77.0727 146.838 81.7327L146.836 81.7366C144.649 86.3003 141.614 89.9014 137.731 92.5537C133.858 95.1032 129.415 96.3826 124.384 96.3826C119.354 96.3826 114.911 95.1032 111.038 92.5537C107.155 89.9011 104.071 86.2992 101.787 81.7346C99.6008 77.0743 98.5033 71.8833 98.5033 66.153C98.5033 60.3236 99.6017 55.1839 101.784 50.7219C104.067 46.2538 107.15 42.7481 111.032 40.1909C115.006 37.6369 119.452 36.3582 124.384 36.3582C129.413 36.3582 133.855 37.6846 137.728 40.3297C141.614 42.984 144.651 46.5395 146.838 51.0079Z" fill="white" stroke="white"/>
<path d="M24.9051 34.7449C22.7125 36.4844 20.8093 38.4297 19.1971 40.5808V34.2637C19.1971 32.9675 18.7068 31.8316 17.7564 30.8765C16.8814 29.8983 15.7296 29.4152 14.3485 29.4152C12.9629 29.4152 11.7718 29.9005 10.8061 30.8662L10.7957 30.8766L10.7859 30.8876C9.93179 31.8484 9.5 32.9812 9.5 34.2637V99.2019C9.5 100.484 9.93179 101.617 10.7859 102.578C11.6696 103.572 12.8784 104.05 14.3485 104.05C15.6494 104.05 16.7889 103.557 17.7461 102.599C18.7032 101.642 19.1971 100.503 19.1971 99.2019V57.021C19.1971 53.2636 20.3219 49.839 22.5803 46.7337C24.8516 43.6106 27.7865 41.0997 31.3934 39.2009C35.0922 37.3045 38.9754 36.3582 43.0489 36.3582C47.6218 36.3582 51.2327 37.3112 53.9263 39.1688L53.9262 39.1689L53.9328 39.1732C56.7484 41.0503 58.7596 43.5305 59.9778 46.6229C61.2083 49.7464 61.8274 53.2104 61.8274 57.021V99.2019C61.8274 100.484 62.2592 101.617 63.1133 102.578C63.997 103.572 65.2058 104.05 66.6759 104.05C67.9768 104.05 69.1163 103.557 70.0734 102.599C71.0306 101.642 71.5245 100.503 71.5245 99.2019V56.5862C71.5245 51.2187 70.6464 46.325 68.8821 41.9116C67.2037 37.3737 64.385 33.8107 60.4317 31.2393C56.5531 28.5565 51.3709 27.2409 44.9332 27.2409C41.3892 27.2409 37.8503 27.9301 34.3191 29.3028C30.8869 30.5781 27.7483 32.3926 24.9051 34.7449Z" fill="white" stroke="white"/>
<path fill-rule="evenodd" clip-rule="evenodd" d="M109.148 10.3863C109.148 7.23916 109.97 4.6879 112.305 4.6879H156.23C158.565 4.6879 158.882 7.23916 158.882 10.3863C158.882 13.5334 158.565 16.0847 156.23 16.0847H112.305C109.97 16.0847 109.148 13.5334 109.148 10.3863Z" fill="white"/>
</svg>
