<svg width="446" height="126" viewBox="0 0 446 126" fill="none" xmlns="http://www.w3.org/2000/svg">
<g filter="url(#filter0_d_96_37)">
<path d="M437.73 20.7662C438.696 20.7662 439.476 21.1004 440.07 21.769C440.738 22.4375 441.073 23.2546 441.073 24.2202V74.3594C441.073 75.2508 440.738 76.0308 440.07 76.6993C439.401 77.3678 438.621 77.7021 437.73 77.7021C436.764 77.7021 435.947 77.3678 435.279 76.6993C434.684 76.0308 434.387 75.2508 434.387 74.3594V61.1004L436.281 60.209C436.281 62.2889 435.687 64.4059 434.499 66.56C433.385 68.7141 431.825 70.7197 429.819 72.5767C427.814 74.4337 425.437 75.9565 422.688 77.145C420.014 78.2592 417.117 78.8163 413.997 78.8163C408.946 78.8163 404.415 77.5164 400.404 74.9165C396.467 72.3167 393.347 68.7513 391.045 64.2202C388.816 59.6891 387.702 54.6009 387.702 48.9556C387.702 43.1617 388.853 38.0735 391.156 33.691C393.459 29.2341 396.579 25.743 400.515 23.2174C404.452 20.6919 408.909 19.4291 413.886 19.4291C417.08 19.4291 420.051 19.9862 422.8 21.1004C425.622 22.2146 428.074 23.7374 430.153 25.6687C432.233 27.6 433.83 29.8284 434.944 32.3539C436.133 34.8052 436.727 37.3678 436.727 40.0419L434.387 38.3706V24.2202C434.387 23.2546 434.684 22.4375 435.279 21.769C435.947 21.1004 436.764 20.7662 437.73 20.7662ZM414.554 72.5767C418.491 72.5767 421.983 71.5739 425.028 69.5684C428.073 67.4885 430.45 64.6659 432.159 61.1004C433.942 57.4607 434.833 53.4124 434.833 48.9556C434.833 44.573 433.942 40.6362 432.159 37.145C430.45 33.6538 428.073 30.8683 425.028 28.7885C421.983 26.7086 418.491 25.6687 414.554 25.6687C410.692 25.6687 407.201 26.6715 404.081 28.677C401.035 30.6826 398.621 33.431 396.839 36.9222C395.13 40.4133 394.276 44.4245 394.276 48.9556C394.276 53.4124 395.13 57.4607 396.839 61.1004C398.621 64.6659 401.035 67.4885 404.081 69.5684C407.126 71.5739 410.618 72.5767 414.554 72.5767Z" fill="#F9EEE3"/>
<path d="M315.043 20.3205C319.648 20.3205 323.585 21.5461 326.853 23.9974C330.122 26.3743 332.35 29.9398 333.539 34.6937L331.979 35.1394L332.647 33.1339C333.613 30.9054 335.21 28.8256 337.438 26.8943C339.741 24.8887 342.341 23.2917 345.238 22.1032C348.135 20.9147 351.069 20.3205 354.04 20.3205C358.72 20.3205 362.471 21.3233 365.293 23.3289C368.19 25.3344 370.27 28.0457 371.533 31.4625C372.87 34.8052 373.539 38.5935 373.539 42.8274V74.3594C373.539 75.2508 373.204 76.0307 372.536 76.6993C371.941 77.3678 371.162 77.7021 370.196 77.7021C369.23 77.7021 368.413 77.3678 367.745 76.6993C367.15 76.0307 366.853 75.2508 366.853 74.3594V43.1617C366.853 40.1162 366.37 37.3307 365.405 34.8052C364.439 32.2796 362.916 30.2741 360.837 28.7885C358.757 27.3029 355.971 26.56 352.48 26.56C349.435 26.56 346.5 27.3029 343.678 28.7885C340.929 30.2741 338.664 32.2796 336.881 34.8052C335.173 37.3307 334.318 40.1162 334.318 43.1617V74.3594C334.318 75.2508 333.984 76.0307 333.316 76.6993C332.721 77.3678 331.942 77.7021 330.976 77.7021C330.01 77.7021 329.193 77.3678 328.525 76.6993C327.93 76.0307 327.633 75.2508 327.633 74.3594V42.8274C327.633 39.7819 327.188 37.0336 326.296 34.5823C325.405 32.1311 323.956 30.1998 321.951 28.7885C319.945 27.3029 317.234 26.56 313.817 26.56C310.772 26.56 307.875 27.3029 305.126 28.7885C302.452 30.1998 300.261 32.1311 298.553 34.5823C296.918 37.0336 296.101 39.7819 296.101 42.8274V74.3594C296.101 75.2508 295.767 76.0307 295.098 76.6993C294.43 77.3678 293.65 77.7021 292.759 77.7021C291.719 77.7021 290.902 77.3678 290.307 76.6993C289.713 76.0307 289.416 75.2508 289.416 74.3594V24.4431C289.416 23.5517 289.713 22.7718 290.307 22.1032C290.976 21.4347 291.793 21.1004 292.759 21.1004C293.724 21.1004 294.504 21.4347 295.098 22.1032C295.767 22.7718 296.101 23.5517 296.101 24.4431V34.8052L293.093 38.9277C293.316 36.6993 294.021 34.4709 295.21 32.2425C296.473 30.0141 298.107 28.0085 300.112 26.2258C302.118 24.4431 304.384 23.0317 306.909 21.9918C309.509 20.8776 312.22 20.3205 315.043 20.3205Z" fill="#F9EEE3"/>
<path d="M272.05 74.3594C272.05 75.2508 271.715 76.0307 271.047 76.6992C270.378 77.3678 269.598 77.702 268.707 77.702C267.741 77.702 266.924 77.3678 266.256 76.6992C265.662 76.0307 265.364 75.2508 265.364 74.3594V23.106C265.364 22.2146 265.662 21.4347 266.256 20.7661C266.924 20.0976 267.741 19.7633 268.707 19.7633C269.673 19.7633 270.453 20.0976 271.047 20.7661C271.715 21.4347 272.05 22.2146 272.05 23.106V74.3594ZM278.289 10.9611C276.804 10.9611 275.652 10.5897 274.835 9.84693C274.092 9.02985 273.721 7.91564 273.721 6.50431V5.3901C273.721 3.97878 274.13 2.90171 274.947 2.15891C275.764 1.34183 276.915 0.933289 278.401 0.933289C279.812 0.933289 280.889 1.34183 281.632 2.15891C282.449 2.90171 282.857 3.97878 282.857 5.3901V6.50431C282.857 7.98992 282.449 9.10413 281.632 9.84693C280.815 10.5897 279.701 10.9611 278.289 10.9611ZM259.125 10.9611C257.639 10.9611 256.525 10.5897 255.782 9.84693C254.965 9.02985 254.557 7.91564 254.557 6.50431V5.3901C254.557 3.97878 254.965 2.90171 255.782 2.15891C256.599 1.34183 257.714 0.933289 259.125 0.933289C260.61 0.933289 261.725 1.34183 262.467 2.15891C263.285 2.90171 263.693 3.97878 263.693 5.3901V6.50431C263.693 7.98992 263.285 9.10413 262.467 9.84693C261.65 10.5897 260.536 10.9611 259.125 10.9611Z" fill="#F9EEE3"/>
<path d="M244.702 20.7662C245.667 20.7662 246.447 21.1004 247.041 21.769C247.71 22.4375 248.044 23.2546 248.044 24.2202V74.3594C248.044 75.2508 247.71 76.0308 247.041 76.6993C246.373 77.3678 245.593 77.7021 244.702 77.7021C243.736 77.7021 242.919 77.3678 242.25 76.6993C241.656 76.0308 241.359 75.2508 241.359 74.3594V61.1004L243.253 60.209C243.253 62.2889 242.659 64.4059 241.47 66.56C240.356 68.7141 238.796 70.7197 236.791 72.5767C234.785 74.4337 232.408 75.9565 229.66 77.145C226.986 78.2592 224.089 78.8163 220.969 78.8163C215.918 78.8163 211.387 77.5164 207.376 74.9165C203.439 72.3167 200.319 68.7513 198.016 64.2202C195.788 59.6891 194.674 54.6009 194.674 48.9556C194.674 43.1617 195.825 38.0735 198.128 33.691C200.431 29.2341 203.55 25.743 207.487 23.2174C211.424 20.6919 215.881 19.4291 220.858 19.4291C224.052 19.4291 227.023 19.9862 229.771 21.1004C232.594 22.2146 235.045 23.7374 237.125 25.6687C239.205 27.6 240.802 29.8284 241.916 32.3539C243.105 34.8052 243.699 37.3678 243.699 40.0419L241.359 38.3706V24.2202C241.359 23.2546 241.656 22.4375 242.25 21.769C242.919 21.1004 243.736 20.7662 244.702 20.7662ZM221.526 72.5767C225.463 72.5767 228.954 71.5739 232 69.5684C235.045 67.4885 237.422 64.6659 239.131 61.1004C240.913 57.4607 241.805 53.4124 241.805 48.9556C241.805 44.573 240.913 40.6362 239.131 37.145C237.422 33.6538 235.045 30.8683 232 28.7885C228.954 26.7086 225.463 25.6687 221.526 25.6687C217.664 25.6687 214.172 26.6715 211.053 28.677C208.007 30.6826 205.593 33.431 203.81 36.9222C202.102 40.4133 201.248 44.4245 201.248 48.9556C201.248 53.4124 202.102 57.4607 203.81 61.1004C205.593 64.6659 208.007 67.4885 211.053 69.5684C214.098 71.5739 217.589 72.5767 221.526 72.5767Z" fill="#F9EEE3"/>
<path d="M160.454 19.4291C165.356 19.4291 169.256 20.4319 172.153 22.4375C175.124 24.3688 177.241 27.0429 178.504 30.4598C179.841 33.8024 180.51 37.5164 180.51 41.6018V74.3594C180.51 75.2508 180.175 76.0308 179.507 76.6993C178.838 77.3678 178.058 77.7021 177.167 77.7021C176.127 77.7021 175.31 77.3678 174.716 76.6993C174.121 76.0308 173.824 75.2508 173.824 74.3594V41.9361C173.824 38.9649 173.342 36.2536 172.376 33.8024C171.41 31.3511 169.813 29.3827 167.585 27.8971C165.431 26.4115 162.571 25.6687 159.005 25.6687C155.811 25.6687 152.766 26.4115 149.869 27.8971C147.046 29.3827 144.744 31.3511 142.961 33.8024C141.178 36.2536 140.287 38.9649 140.287 41.9361V74.3594C140.287 75.2508 139.953 76.0308 139.284 76.6993C138.615 77.3678 137.836 77.7021 136.944 77.7021C135.904 77.7021 135.087 77.3678 134.493 76.6993C133.899 76.0308 133.602 75.2508 133.602 74.3594V24.4431C133.602 23.5517 133.899 22.7718 134.493 22.1032C135.161 21.4347 135.979 21.1004 136.944 21.1004C137.91 21.1004 138.69 21.4347 139.284 22.1032C139.953 22.7718 140.287 23.5517 140.287 24.4431V33.8024L137.724 37.8135C137.873 35.4366 138.615 33.171 139.953 31.0169C141.364 28.7885 143.147 26.82 145.301 25.1116C147.455 23.3289 149.832 21.9547 152.432 20.989C155.106 19.9491 157.78 19.4291 160.454 19.4291Z" fill="#F9EEE3"/>
<path fill-rule="evenodd" clip-rule="evenodd" d="M209.814 5.39961C209.814 3.36127 210.446 1.70886 212.241 1.70886H246.005C247.799 1.70886 248.044 3.36127 248.044 5.39961C248.044 7.43796 247.799 9.09036 246.005 9.09036H212.241C210.446 9.09036 209.814 7.43796 209.814 5.39961Z" fill="#F9EEE3"/>
<path d="M355.184 102.316C355.501 102.316 355.761 102.428 355.966 102.651C356.189 102.856 356.301 103.116 356.301 103.433V115.743C356.301 116.06 356.189 116.33 355.966 116.553C355.761 116.776 355.501 116.888 355.184 116.888C354.849 116.888 354.58 116.776 354.375 116.553C354.17 116.33 354.068 116.06 354.068 115.743V113.091L354.598 113.036C354.598 113.445 354.459 113.892 354.179 114.376C353.9 114.859 353.519 115.315 353.035 115.743C352.551 116.153 351.974 116.497 351.304 116.776C350.653 117.037 349.946 117.167 349.183 117.167C347.917 117.167 346.782 116.842 345.777 116.19C344.772 115.52 343.972 114.618 343.376 113.482C342.799 112.347 342.511 111.054 342.511 109.602C342.511 108.132 342.799 106.838 343.376 105.722C343.972 104.587 344.772 103.703 345.777 103.07C346.782 102.418 347.898 102.093 349.127 102.093C349.927 102.093 350.671 102.223 351.36 102.484C352.049 102.744 352.644 103.098 353.147 103.544C353.668 103.991 354.068 104.484 354.347 105.024C354.645 105.564 354.794 106.103 354.794 106.643L354.068 106.475V103.433C354.068 103.116 354.17 102.856 354.375 102.651C354.58 102.428 354.849 102.316 355.184 102.316ZM349.434 115.101C350.364 115.101 351.183 114.859 351.89 114.376C352.616 113.892 353.175 113.24 353.565 112.422C353.975 111.584 354.179 110.644 354.179 109.602C354.179 108.578 353.975 107.657 353.565 106.838C353.175 106.001 352.616 105.35 351.89 104.884C351.183 104.4 350.364 104.158 349.434 104.158C348.522 104.158 347.703 104.391 346.977 104.856C346.27 105.322 345.712 105.964 345.302 106.783C344.893 107.601 344.688 108.541 344.688 109.602C344.688 110.644 344.884 111.584 345.274 112.422C345.684 113.24 346.242 113.892 346.949 114.376C347.675 114.859 348.503 115.101 349.434 115.101Z" fill="#F9EEE3"/>
<path d="M333.532 116.888C333.215 116.888 332.945 116.776 332.722 116.553C332.517 116.33 332.415 116.06 332.415 115.743V103.572C332.415 103.256 332.517 102.995 332.722 102.791C332.945 102.567 333.215 102.456 333.532 102.456C333.867 102.456 334.136 102.567 334.341 102.791C334.546 102.995 334.648 103.256 334.648 103.572V107.257L334.313 106.671C334.425 106.094 334.62 105.536 334.9 104.996C335.197 104.438 335.57 103.944 336.016 103.516C336.463 103.07 336.975 102.725 337.552 102.484C338.128 102.223 338.761 102.093 339.45 102.093C339.859 102.093 340.231 102.195 340.566 102.4C340.92 102.586 341.097 102.856 341.097 103.209C341.097 103.6 340.994 103.889 340.79 104.075C340.585 104.261 340.352 104.354 340.092 104.354C339.85 104.354 339.617 104.307 339.394 104.214C339.171 104.103 338.891 104.047 338.556 104.047C338.091 104.047 337.626 104.177 337.161 104.438C336.714 104.68 336.295 105.033 335.905 105.498C335.532 105.964 335.225 106.494 334.983 107.09C334.76 107.667 334.648 108.29 334.648 108.96V115.743C334.648 116.06 334.537 116.33 334.313 116.553C334.109 116.776 333.848 116.888 333.532 116.888Z" fill="#F9EEE3"/>
<path d="M329.056 109.63C329.056 111.082 328.73 112.375 328.079 113.51C327.446 114.645 326.58 115.539 325.482 116.19C324.403 116.842 323.184 117.167 321.825 117.167C320.467 117.167 319.239 116.842 318.141 116.19C317.043 115.539 316.168 114.645 315.517 113.51C314.884 112.375 314.567 111.082 314.567 109.63C314.567 108.178 314.884 106.885 315.517 105.75C316.168 104.614 317.043 103.721 318.141 103.07C319.239 102.418 320.467 102.093 321.825 102.093C323.184 102.093 324.403 102.418 325.482 103.07C326.58 103.721 327.446 104.614 328.079 105.75C328.73 106.885 329.056 108.178 329.056 109.63ZM326.822 109.63C326.822 108.551 326.599 107.601 326.152 106.783C325.724 105.964 325.129 105.322 324.366 104.856C323.621 104.391 322.775 104.158 321.825 104.158C320.876 104.158 320.02 104.391 319.257 104.856C318.513 105.322 317.917 105.964 317.471 106.783C317.024 107.601 316.801 108.551 316.801 109.63C316.801 110.691 317.024 111.631 317.471 112.449C317.917 113.268 318.513 113.92 319.257 114.404C320.02 114.869 320.876 115.101 321.825 115.101C322.775 115.101 323.621 114.869 324.366 114.404C325.129 113.92 325.724 113.268 326.152 112.449C326.599 111.631 326.822 110.691 326.822 109.63Z" fill="#F9EEE3"/>
<path d="M304.786 102.539H311.346C311.644 102.539 311.886 102.642 312.072 102.846C312.277 103.051 312.379 103.293 312.379 103.572C312.379 103.87 312.277 104.121 312.072 104.326C311.886 104.512 311.644 104.605 311.346 104.605H304.786C304.507 104.605 304.265 104.503 304.06 104.298C303.855 104.093 303.753 103.842 303.753 103.544C303.753 103.265 303.855 103.033 304.06 102.846C304.265 102.642 304.507 102.539 304.786 102.539ZM307.717 98.7428C308.033 98.7428 308.294 98.8545 308.499 99.0778C308.703 99.2825 308.806 99.543 308.806 99.8594V113.343C308.806 113.789 308.871 114.124 309.001 114.348C309.131 114.571 309.299 114.729 309.504 114.822C309.727 114.897 309.941 114.934 310.146 114.934C310.332 114.934 310.49 114.906 310.62 114.85C310.769 114.776 310.937 114.738 311.123 114.738C311.309 114.738 311.476 114.832 311.625 115.018C311.793 115.185 311.876 115.408 311.876 115.688C311.876 116.023 311.681 116.311 311.29 116.553C310.899 116.776 310.462 116.888 309.978 116.888C309.718 116.888 309.392 116.869 309.001 116.832C308.629 116.795 308.257 116.674 307.884 116.469C307.512 116.265 307.196 115.93 306.935 115.464C306.693 114.98 306.572 114.31 306.572 113.454V99.8594C306.572 99.543 306.684 99.2825 306.907 99.0778C307.131 98.8545 307.401 98.7428 307.717 98.7428Z" fill="#F9EEE3"/>
<path d="M297.289 102.093C298.238 102.093 299.094 102.195 299.857 102.4C300.62 102.604 301.225 102.884 301.672 103.237C302.119 103.591 302.342 103.991 302.342 104.438C302.342 104.68 302.258 104.912 302.091 105.136C301.923 105.359 301.7 105.471 301.421 105.471C301.16 105.471 300.946 105.424 300.779 105.331C300.63 105.238 300.481 105.117 300.332 104.968C300.202 104.819 300.016 104.689 299.774 104.577C299.55 104.447 299.225 104.345 298.797 104.27C298.369 104.196 297.941 104.158 297.512 104.158C296.489 104.158 295.586 104.4 294.805 104.884C294.042 105.368 293.437 106.02 292.99 106.838C292.543 107.657 292.32 108.588 292.32 109.63C292.32 110.672 292.534 111.603 292.962 112.422C293.39 113.24 293.986 113.892 294.749 114.376C295.512 114.859 296.396 115.101 297.401 115.101C298.052 115.101 298.573 115.046 298.964 114.934C299.355 114.822 299.681 114.692 299.941 114.543C300.276 114.357 300.527 114.171 300.695 113.985C300.881 113.799 301.123 113.706 301.421 113.706C301.737 113.706 301.979 113.808 302.146 114.013C302.333 114.217 302.426 114.469 302.426 114.766C302.426 115.101 302.193 115.455 301.728 115.827C301.262 116.199 300.63 116.516 299.829 116.776C299.048 117.037 298.155 117.167 297.15 117.167C295.735 117.167 294.498 116.842 293.437 116.19C292.376 115.52 291.548 114.618 290.952 113.482C290.375 112.328 290.087 111.044 290.087 109.63C290.087 108.216 290.385 106.941 290.98 105.806C291.594 104.67 292.441 103.768 293.521 103.098C294.6 102.428 295.856 102.093 297.289 102.093Z" fill="#F9EEE3"/>
<path d="M285.615 102.456C285.95 102.456 286.22 102.567 286.424 102.791C286.629 102.995 286.732 103.256 286.732 103.572V111.193C286.732 113.073 286.201 114.534 285.14 115.576C284.098 116.6 282.637 117.111 280.758 117.111C278.897 117.111 277.436 116.6 276.375 115.576C275.333 114.534 274.812 113.073 274.812 111.193V103.572C274.812 103.256 274.914 102.995 275.119 102.791C275.342 102.567 275.612 102.456 275.928 102.456C276.263 102.456 276.533 102.567 276.738 102.791C276.942 102.995 277.045 103.256 277.045 103.572V111.193C277.045 112.459 277.37 113.417 278.022 114.069C278.673 114.72 279.585 115.046 280.758 115.046C281.967 115.046 282.888 114.72 283.521 114.069C284.173 113.417 284.498 112.459 284.498 111.193V103.572C284.498 103.256 284.601 102.995 284.805 102.791C285.029 102.567 285.299 102.456 285.615 102.456Z" fill="#F9EEE3"/>
<path d="M269.119 96.2305C269.435 96.2305 269.696 96.3422 269.901 96.5655C270.124 96.7702 270.236 97.0308 270.236 97.3472V115.744C270.236 116.06 270.124 116.33 269.901 116.553C269.696 116.776 269.435 116.888 269.119 116.888C268.784 116.888 268.514 116.776 268.309 116.553C268.105 116.33 268.002 116.06 268.002 115.744V113.092L268.533 112.896C268.533 113.343 268.393 113.817 268.114 114.32C267.835 114.804 267.453 115.26 266.97 115.688C266.486 116.116 265.909 116.469 265.239 116.749C264.587 117.028 263.88 117.167 263.117 117.167C261.87 117.167 260.735 116.842 259.711 116.19C258.706 115.539 257.906 114.646 257.311 113.51C256.734 112.375 256.445 111.082 256.445 109.63C256.445 108.16 256.734 106.857 257.311 105.722C257.906 104.587 258.706 103.703 259.711 103.07C260.716 102.419 261.833 102.093 263.061 102.093C263.843 102.093 264.578 102.223 265.267 102.484C265.955 102.744 266.551 103.098 267.053 103.544C267.574 103.991 267.984 104.484 268.282 105.024C268.579 105.564 268.728 106.103 268.728 106.643L268.002 106.476V97.3472C268.002 97.0308 268.105 96.7702 268.309 96.5655C268.514 96.3422 268.784 96.2305 269.119 96.2305ZM263.368 115.102C264.299 115.102 265.118 114.869 265.825 114.404C266.551 113.92 267.109 113.268 267.5 112.45C267.909 111.612 268.114 110.672 268.114 109.63C268.114 108.569 267.909 107.629 267.5 106.811C267.109 105.992 266.551 105.35 265.825 104.884C265.118 104.401 264.299 104.159 263.368 104.159C262.456 104.159 261.638 104.401 260.912 104.884C260.205 105.35 259.646 105.992 259.237 106.811C258.827 107.629 258.623 108.569 258.623 109.63C258.623 110.654 258.827 111.584 259.237 112.422C259.646 113.24 260.205 113.892 260.912 114.376C261.638 114.86 262.456 115.102 263.368 115.102Z" fill="#F9EEE3"/>
<path d="M253.868 109.63C253.868 111.082 253.542 112.375 252.891 113.51C252.258 114.646 251.393 115.539 250.295 116.19C249.216 116.842 247.997 117.167 246.638 117.167C245.279 117.167 244.051 116.842 242.953 116.19C241.855 115.539 240.98 114.646 240.329 113.51C239.696 112.375 239.38 111.082 239.38 109.63C239.38 108.178 239.696 106.885 240.329 105.75C240.98 104.614 241.855 103.721 242.953 103.07C244.051 102.418 245.279 102.093 246.638 102.093C247.997 102.093 249.216 102.418 250.295 103.07C251.393 103.721 252.258 104.614 252.891 105.75C253.542 106.885 253.868 108.178 253.868 109.63ZM251.635 109.63C251.635 108.551 251.412 107.601 250.965 106.783C250.537 105.964 249.941 105.322 249.178 104.856C248.434 104.391 247.587 104.159 246.638 104.159C245.689 104.159 244.833 104.391 244.07 104.856C243.325 105.322 242.73 105.964 242.283 106.783C241.836 107.601 241.613 108.551 241.613 109.63C241.613 110.691 241.836 111.631 242.283 112.449C242.73 113.268 243.325 113.92 244.07 114.404C244.833 114.869 245.689 115.101 246.638 115.101C247.587 115.101 248.434 114.869 249.178 114.404C249.941 113.92 250.537 113.268 250.965 112.449C251.412 111.631 251.635 110.691 251.635 109.63Z" fill="#F9EEE3"/>
<path d="M230.701 116.888C230.384 116.888 230.114 116.776 229.891 116.553C229.686 116.33 229.584 116.06 229.584 115.744V103.572C229.584 103.256 229.686 102.995 229.891 102.791C230.114 102.567 230.384 102.456 230.701 102.456C231.036 102.456 231.305 102.567 231.51 102.791C231.715 102.995 231.817 103.256 231.817 103.572V107.257L231.482 106.671C231.594 106.094 231.789 105.536 232.068 104.996C232.366 104.438 232.738 103.945 233.185 103.516C233.632 103.07 234.144 102.726 234.72 102.484C235.297 102.223 235.93 102.093 236.619 102.093C237.028 102.093 237.4 102.195 237.735 102.4C238.089 102.586 238.266 102.856 238.266 103.209C238.266 103.6 238.163 103.889 237.959 104.075C237.754 104.261 237.521 104.354 237.261 104.354C237.019 104.354 236.786 104.307 236.563 104.214C236.34 104.103 236.06 104.047 235.725 104.047C235.26 104.047 234.795 104.177 234.33 104.438C233.883 104.68 233.464 105.033 233.073 105.498C232.701 105.964 232.394 106.494 232.152 107.09C231.929 107.667 231.817 108.29 231.817 108.96V115.744C231.817 116.06 231.706 116.33 231.482 116.553C231.278 116.776 231.017 116.888 230.701 116.888Z" fill="#F9EEE3"/>
<path d="M220.913 97.3471C221.936 97.3471 222.857 97.5983 223.676 98.1008C224.495 98.6033 225.137 99.2919 225.602 100.167C226.086 101.041 226.328 102.037 226.328 103.154C226.328 104.252 226.086 105.247 225.602 106.141C225.137 107.034 224.495 107.741 223.676 108.262C222.857 108.783 221.936 109.044 220.913 109.044H215.246L215.441 108.709V115.744C215.441 116.06 215.339 116.33 215.134 116.553C214.929 116.776 214.669 116.888 214.352 116.888C214.017 116.888 213.748 116.776 213.543 116.553C213.357 116.33 213.264 116.06 213.264 115.744V98.4637C213.264 98.1474 213.366 97.8868 213.571 97.6821C213.794 97.4588 214.064 97.3471 214.38 97.3471H220.913ZM220.913 106.894C221.527 106.894 222.066 106.727 222.532 106.392C222.997 106.057 223.369 105.601 223.648 105.024C223.927 104.447 224.067 103.824 224.067 103.154C224.067 102.446 223.927 101.823 223.648 101.283C223.369 100.744 222.997 100.315 222.532 99.9991C222.066 99.6641 221.527 99.4966 220.913 99.4966H215.246L215.441 99.1895V107.173L215.246 106.894H220.913Z" fill="#F9EEE3"/>
<path d="M199.93 102.316C200.246 102.316 200.507 102.428 200.711 102.651C200.935 102.856 201.046 103.116 201.046 103.433V115.744C201.046 116.06 200.935 116.33 200.711 116.553C200.507 116.776 200.246 116.888 199.93 116.888C199.595 116.888 199.325 116.776 199.12 116.553C198.915 116.33 198.813 116.06 198.813 115.744V113.092L199.343 113.036C199.343 113.445 199.204 113.892 198.925 114.376C198.645 114.86 198.264 115.316 197.78 115.744C197.296 116.153 196.719 116.497 196.049 116.776C195.398 117.037 194.691 117.167 193.928 117.167C192.662 117.167 191.527 116.842 190.522 116.19C189.517 115.52 188.717 114.618 188.121 113.482C187.544 112.347 187.256 111.054 187.256 109.602C187.256 108.132 187.544 106.838 188.121 105.722C188.717 104.587 189.517 103.703 190.522 103.07C191.527 102.418 192.644 102.093 193.872 102.093C194.672 102.093 195.417 102.223 196.105 102.484C196.794 102.744 197.389 103.098 197.892 103.544C198.413 103.991 198.813 104.484 199.092 105.024C199.39 105.564 199.539 106.103 199.539 106.643L198.813 106.476V103.433C198.813 103.116 198.915 102.856 199.12 102.651C199.325 102.428 199.595 102.316 199.93 102.316ZM194.179 115.101C195.109 115.101 195.928 114.86 196.636 114.376C197.361 113.892 197.92 113.24 198.31 112.422C198.72 111.584 198.925 110.644 198.925 109.602C198.925 108.579 198.72 107.657 198.31 106.838C197.92 106.001 197.361 105.35 196.636 104.884C195.928 104.4 195.109 104.159 194.179 104.159C193.267 104.159 192.448 104.391 191.722 104.856C191.015 105.322 190.457 105.964 190.047 106.783C189.638 107.601 189.433 108.541 189.433 109.602C189.433 110.644 189.629 111.584 190.02 112.422C190.429 113.24 190.987 113.892 191.694 114.376C192.42 114.86 193.248 115.101 194.179 115.101Z" fill="#F9EEE3"/>
<path d="M173.789 114.599C173.621 114.357 173.547 114.106 173.565 113.845C173.584 113.566 173.742 113.324 174.04 113.119C174.226 112.989 174.44 112.933 174.682 112.952C174.942 112.971 175.175 113.092 175.38 113.315C175.901 113.929 176.496 114.422 177.166 114.794C177.836 115.148 178.655 115.325 179.623 115.325C180.07 115.306 180.516 115.232 180.963 115.101C181.41 114.971 181.782 114.748 182.08 114.432C182.396 114.097 182.554 113.659 182.554 113.119C182.554 112.598 182.396 112.189 182.08 111.891C181.763 111.575 181.354 111.324 180.851 111.137C180.349 110.933 179.8 110.756 179.204 110.607C178.59 110.44 177.985 110.253 177.39 110.049C176.794 109.825 176.255 109.556 175.771 109.239C175.305 108.904 174.924 108.495 174.626 108.011C174.347 107.508 174.207 106.904 174.207 106.196C174.207 105.359 174.431 104.633 174.877 104.019C175.343 103.405 175.957 102.93 176.72 102.595C177.501 102.26 178.348 102.093 179.26 102.093C179.781 102.093 180.321 102.158 180.879 102.288C181.456 102.4 182.014 102.605 182.554 102.902C183.094 103.181 183.568 103.572 183.978 104.075C184.145 104.261 184.238 104.494 184.257 104.773C184.276 105.052 184.155 105.303 183.894 105.526C183.689 105.675 183.457 105.74 183.196 105.722C182.954 105.703 182.75 105.61 182.582 105.443C182.191 104.977 181.698 104.624 181.103 104.382C180.526 104.121 179.884 103.991 179.176 103.991C178.73 103.991 178.292 104.056 177.864 104.186C177.436 104.317 177.073 104.54 176.776 104.856C176.496 105.154 176.357 105.573 176.357 106.113C176.375 106.615 176.543 107.025 176.859 107.341C177.176 107.657 177.604 107.918 178.143 108.123C178.683 108.309 179.279 108.495 179.93 108.681C180.526 108.83 181.093 109.007 181.633 109.211C182.191 109.397 182.694 109.649 183.14 109.965C183.587 110.281 183.941 110.691 184.201 111.193C184.462 111.677 184.592 112.291 184.592 113.036C184.592 113.892 184.35 114.636 183.866 115.269C183.382 115.883 182.74 116.358 181.94 116.693C181.158 117.009 180.312 117.167 179.4 117.167C178.376 117.167 177.362 116.972 176.357 116.581C175.371 116.19 174.514 115.53 173.789 114.599Z" fill="#F9EEE3"/>
<path d="M169.343 102.316C169.659 102.316 169.92 102.428 170.124 102.651C170.348 102.856 170.459 103.116 170.459 103.433V115.744C170.459 116.06 170.348 116.33 170.124 116.553C169.92 116.776 169.659 116.888 169.343 116.888C169.008 116.888 168.738 116.776 168.533 116.553C168.328 116.33 168.226 116.06 168.226 115.744V113.092L168.756 113.036C168.756 113.445 168.617 113.892 168.338 114.376C168.059 114.86 167.677 115.316 167.193 115.744C166.709 116.153 166.132 116.497 165.462 116.776C164.811 117.037 164.104 117.167 163.341 117.167C162.075 117.167 160.94 116.842 159.935 116.19C158.93 115.52 158.13 114.618 157.534 113.482C156.957 112.347 156.669 111.054 156.669 109.602C156.669 108.132 156.957 106.838 157.534 105.722C158.13 104.587 158.93 103.703 159.935 103.07C160.94 102.418 162.057 102.093 163.285 102.093C164.085 102.093 164.83 102.223 165.518 102.484C166.207 102.744 166.802 103.098 167.305 103.544C167.826 103.991 168.226 104.484 168.505 105.024C168.803 105.564 168.952 106.103 168.952 106.643L168.226 106.476V103.433C168.226 103.116 168.328 102.856 168.533 102.651C168.738 102.428 169.008 102.316 169.343 102.316ZM163.592 115.101C164.523 115.101 165.341 114.86 166.049 114.376C166.774 113.892 167.333 113.24 167.724 112.422C168.133 111.584 168.338 110.644 168.338 109.602C168.338 108.579 168.133 107.657 167.724 106.838C167.333 106.001 166.774 105.35 166.049 104.884C165.341 104.4 164.523 104.159 163.592 104.159C162.68 104.159 161.861 104.391 161.135 104.856C160.428 105.322 159.87 105.964 159.461 106.783C159.051 107.601 158.846 108.541 158.846 109.602C158.846 110.644 159.042 111.584 159.433 112.422C159.842 113.24 160.4 113.892 161.108 114.376C161.833 114.86 162.662 115.101 163.592 115.101Z" fill="#F9EEE3"/>
<path d="M153.918 98.6312C154.235 98.7987 154.412 99.05 154.449 99.3849C154.505 99.7199 154.421 100.027 154.197 100.306C154.03 100.548 153.816 100.678 153.555 100.697C153.295 100.716 153.034 100.66 152.774 100.529C152.16 100.157 151.499 99.8688 150.792 99.6641C150.085 99.4408 149.34 99.3291 148.559 99.3291C147.46 99.3291 146.456 99.5245 145.544 99.9153C144.632 100.288 143.841 100.818 143.171 101.507C142.501 102.195 141.98 103.014 141.608 103.963C141.235 104.912 141.049 105.964 141.049 107.118C141.049 108.346 141.245 109.444 141.635 110.412C142.026 111.379 142.557 112.208 143.227 112.896C143.915 113.566 144.706 114.078 145.599 114.432C146.511 114.785 147.498 114.962 148.559 114.962C149.322 114.962 150.057 114.86 150.764 114.655C151.471 114.45 152.141 114.152 152.774 113.762C153.034 113.631 153.295 113.585 153.555 113.622C153.816 113.659 154.039 113.789 154.225 114.013C154.449 114.311 154.532 114.627 154.477 114.962C154.421 115.278 154.244 115.511 153.946 115.66C153.481 115.939 152.951 116.2 152.355 116.441C151.76 116.665 151.136 116.842 150.485 116.972C149.852 117.102 149.21 117.167 148.559 117.167C147.219 117.167 145.953 116.935 144.762 116.469C143.571 116.004 142.519 115.334 141.608 114.459C140.696 113.585 139.97 112.533 139.43 111.305C138.909 110.058 138.648 108.662 138.648 107.118C138.648 105.666 138.9 104.335 139.402 103.126C139.905 101.916 140.603 100.864 141.496 99.9712C142.408 99.0779 143.459 98.38 144.65 97.8775C145.86 97.375 147.163 97.1238 148.559 97.1238C149.526 97.1238 150.466 97.2541 151.378 97.5146C152.309 97.7751 153.155 98.1474 153.918 98.6312Z" fill="#F9EEE3"/>
<path d="M114.648 59.2908C114.648 89.4312 90.2143 113.865 60.0739 113.865C29.9336 113.865 5.5 89.4312 5.5 59.2908C5.5 29.1504 29.9336 4.7168 60.0739 4.7168C90.2143 4.7168 114.648 29.1504 114.648 59.2908Z" stroke="#F9F1E3" stroke-width="3"/>
<path d="M60.1553 59.2101C46.3039 40.5168 46.0314 30.9548 60.1553 7.52496C74.8374 28.6878 74.7046 39.9665 60.1553 59.2101ZM60.1553 59.2101C80.7554 45.9509 91.9752 45.8661 111.366 59.2101C90.8595 73.2987 79.6888 72.1468 60.1553 59.2101ZM60.1553 59.2101C73.9182 78.5224 73.924 89.8218 60.1553 110.83C45.7594 91.2709 45.8709 79.9837 60.1553 59.2101ZM60.1553 59.2101C40.7928 45.6779 29.4828 45.3916 8.42383 59.2101C28.9866 73.7744 40.3299 73.6799 60.1553 59.2101Z" stroke="#F9F1E3" stroke-width="3"/>
<circle cx="87.5254" cy="32.8074" r="1.5" fill="#F9EEE3" stroke="#F9F1E3" stroke-width="3"/>
<circle cx="32.2168" cy="32.8074" r="1.5" fill="#F9EEE3" stroke="#F9F1E3" stroke-width="3"/>
<circle cx="32.2168" cy="86.3767" r="1.5" fill="#F9EEE3" stroke="#F9F1E3" stroke-width="3"/>
<circle cx="87.5254" cy="86.3767" r="1.5" fill="#F9EEE3" stroke="#F9F1E3" stroke-width="3"/>
</g>
<defs>
<filter id="filter0_d_96_37" x="0" y="0.933289" width="445.072" height="124.234" filterUnits="userSpaceOnUse" color-interpolation-filters="sRGB">
<feFlood flood-opacity="0" result="BackgroundImageFix"/>
<feColorMatrix in="SourceAlpha" type="matrix" values="0 0 0 0 0 0 0 0 0 0 0 0 0 0 0 0 0 0 127 0" result="hardAlpha"/>
<feOffset dy="4"/>
<feGaussianBlur stdDeviation="2"/>
<feComposite in2="hardAlpha" operator="out"/>
<feColorMatrix type="matrix" values="0 0 0 0 0 0 0 0 0 0 0 0 0 0 0 0 0 0 0.25 0"/>
<feBlend mode="normal" in2="BackgroundImageFix" result="effect1_dropShadow_96_37"/>
<feBlend mode="normal" in="SourceGraphic" in2="effect1_dropShadow_96_37" result="shape"/>
</filter>
</defs>
</svg>
