<svg width="144" height="40" viewBox="0 0 144 40" fill="none" xmlns="http://www.w3.org/2000/svg">
<path d="M18.4207 20.0106C13.7562 13.7158 13.6644 10.4958 18.4207 2.60596C23.3649 9.7324 23.3202 13.5304 18.4207 20.0106ZM18.4207 20.0106C25.3578 15.5457 29.136 15.5171 35.6658 20.0106C28.7604 24.7549 24.9986 24.367 18.4207 20.0106ZM18.4207 20.0106C23.0553 26.5139 23.0573 30.3189 18.4207 37.3933C13.5728 30.8069 13.6104 27.006 18.4207 20.0106ZM18.4207 20.0106C11.9003 15.4537 8.09164 15.3573 1 20.0106C7.92456 24.9151 11.7444 24.8832 18.4207 20.0106Z" stroke="#F9F1E3" stroke-width="1.4" stroke-linejoin="round"/>
<mask id="path-2-inside-1_229_123" fill="white">
<ellipse cx="28.11" cy="11.1581" rx="1.09948" ry="1.09955"/>
</mask>
<ellipse cx="28.11" cy="11.1581" rx="1.09948" ry="1.09955" fill="#F9EEE3"/>
<path d="M27.8095 11.1581C27.8095 10.9923 27.9439 10.8577 28.11 10.8577V13.6577C29.4905 13.6577 30.6095 12.5385 30.6095 11.1581H27.8095ZM28.11 10.8577C28.276 10.8577 28.4105 10.9923 28.4105 11.1581H25.6105C25.6105 12.5385 26.7295 13.6577 28.11 13.6577V10.8577ZM28.4105 11.1581C28.4105 11.324 28.276 11.4586 28.11 11.4586V8.65859C26.7295 8.65859 25.6105 9.77776 25.6105 11.1581H28.4105ZM28.11 11.4586C27.9439 11.4586 27.8095 11.324 27.8095 11.1581H30.6095C30.6095 9.77776 29.4905 8.65859 28.11 8.65859V11.4586Z" fill="#F9F1E3" mask="url(#path-2-inside-1_229_123)"/>
<mask id="path-4-inside-2_229_123" fill="white">
<ellipse cx="9.48449" cy="11.1581" rx="1.09948" ry="1.09955"/>
</mask>
<ellipse cx="9.48449" cy="11.1581" rx="1.09948" ry="1.09955" fill="#F9EEE3"/>
<path d="M9.18396 11.1581C9.18396 10.9923 9.31843 10.8577 9.48449 10.8577V13.6577C10.865 13.6577 11.984 12.5385 11.984 11.1581H9.18396ZM9.48449 10.8577C9.65054 10.8577 9.78501 10.9923 9.78501 11.1581H6.98501C6.98501 12.5385 8.10398 13.6577 9.48449 13.6577V10.8577ZM9.78501 11.1581C9.78501 11.324 9.65054 11.4586 9.48449 11.4586V8.65859C8.10398 8.65859 6.98501 9.77776 6.98501 11.1581H9.78501ZM9.48449 11.4586C9.31843 11.4586 9.18396 11.324 9.18396 11.1581H11.984C11.984 9.77776 10.865 8.65859 9.48449 8.65859V11.4586Z" fill="#F9F1E3" mask="url(#path-4-inside-2_229_123)"/>
<mask id="path-6-inside-3_229_123" fill="white">
<ellipse cx="9.48449" cy="29.7704" rx="1.09948" ry="1.09955"/>
</mask>
<ellipse cx="9.48449" cy="29.7704" rx="1.09948" ry="1.09955" fill="#F9EEE3"/>
<path d="M9.18396 29.7704C9.18396 29.6046 9.31843 29.47 9.48449 29.47V32.27C10.865 32.27 11.984 31.1508 11.984 29.7704H9.18396ZM9.48449 29.47C9.65054 29.47 9.78501 29.6046 9.78501 29.7704H6.98501C6.98501 31.1508 8.10398 32.27 9.48449 32.27V29.47ZM9.78501 29.7704C9.78501 29.9363 9.65054 30.0709 9.48449 30.0709V27.2709C8.10398 27.2709 6.98501 28.3901 6.98501 29.7704H9.78501ZM9.48449 30.0709C9.31843 30.0709 9.18396 29.9363 9.18396 29.7704H11.984C11.984 28.3901 10.865 27.2709 9.48449 27.2709V30.0709Z" fill="#F9F1E3" mask="url(#path-6-inside-3_229_123)"/>
<mask id="path-8-inside-4_229_123" fill="white">
<ellipse cx="28.11" cy="29.7704" rx="1.09948" ry="1.09955"/>
</mask>
<ellipse cx="28.11" cy="29.7704" rx="1.09948" ry="1.09955" fill="#F9EEE3"/>
<path d="M27.8095 29.7704C27.8095 29.6046 27.9439 29.47 28.11 29.47V32.27C29.4905 32.27 30.6095 31.1508 30.6095 29.7704H27.8095ZM28.11 29.47C28.276 29.47 28.4105 29.6046 28.4105 29.7704H25.6105C25.6105 31.1508 26.7295 32.27 28.11 32.27V29.47ZM28.4105 29.7704C28.4105 29.9363 28.276 30.0709 28.11 30.0709V27.2709C26.7295 27.2709 25.6105 28.3901 25.6105 29.7704H28.4105ZM28.11 30.0709C27.9439 30.0709 27.8095 29.9363 27.8095 29.7704H30.6095C30.6095 28.3901 29.4905 27.2709 28.11 27.2709V30.0709Z" fill="#F9F1E3" mask="url(#path-8-inside-4_229_123)"/>
<path d="M142.073 7.10796C142.398 7.10796 142.661 7.22052 142.861 7.44564C143.086 7.67076 143.199 7.94591 143.199 8.27108V25.1552C143.199 25.4553 143.086 25.718 142.861 25.9431C142.636 26.1682 142.373 26.2808 142.073 26.2808C141.748 26.2808 141.473 26.1682 141.248 25.9431C141.048 25.718 140.948 25.4553 140.948 25.1552V20.6903L141.585 20.3901C141.585 21.0905 141.385 21.8034 140.985 22.5287C140.61 23.2541 140.085 23.9295 139.409 24.5548C138.734 25.1802 137.933 25.6929 137.008 26.0932C136.107 26.4684 135.132 26.656 134.081 26.656C132.38 26.656 130.854 26.2182 129.504 25.3428C128.178 24.4673 127.127 23.2666 126.352 21.7408C125.602 20.215 125.226 18.5016 125.226 16.6006C125.226 14.6495 125.614 12.9361 126.389 11.4603C127.165 9.95949 128.215 8.78386 129.541 7.9334C130.867 7.08294 132.368 6.65771 134.044 6.65771C135.119 6.65771 136.12 6.84532 137.045 7.22052C137.996 7.59572 138.821 8.10849 139.522 8.75884C140.222 9.40919 140.76 10.1596 141.135 11.0101C141.535 11.8355 141.736 12.6985 141.736 13.5989L140.948 13.0361V8.27108C140.948 7.94591 141.048 7.67076 141.248 7.44564C141.473 7.22052 141.748 7.10796 142.073 7.10796ZM134.269 24.5548C135.595 24.5548 136.77 24.2172 137.796 23.5418C138.821 22.8414 139.622 21.8909 140.197 20.6903C140.798 19.4646 141.098 18.1014 141.098 16.6006C141.098 15.1248 140.798 13.7991 140.197 12.6234C139.622 11.4478 138.821 10.5098 137.796 9.80941C136.77 9.10903 135.595 8.75884 134.269 8.75884C132.968 8.75884 131.792 9.09653 130.742 9.77189C129.716 10.4473 128.903 11.3727 128.303 12.5484C127.728 13.724 127.44 15.0747 127.44 16.6006C127.44 18.1014 127.728 19.4646 128.303 20.6903C128.903 21.8909 129.716 22.8414 130.742 23.5418C131.767 24.2172 132.943 24.5548 134.269 24.5548Z" fill="#F9EEE3"/>
<path d="M100.759 6.95752C102.31 6.95752 103.635 7.37024 104.736 8.19569C105.837 8.99612 106.587 10.1968 106.987 11.7976L106.462 11.9477L106.687 11.2723C107.012 10.5219 107.55 9.82156 108.3 9.17121C109.076 8.49585 109.951 7.95806 110.927 7.55784C111.902 7.15763 112.891 6.95752 113.891 6.95752C115.467 6.95752 116.73 7.2952 117.681 7.97056C118.656 8.64593 119.357 9.55892 119.782 10.7095C120.232 11.8351 120.457 13.1108 120.457 14.5366V25.1548C120.457 25.455 120.345 25.7176 120.12 25.9427C119.919 26.1678 119.657 26.2804 119.332 26.2804C119.006 26.2804 118.731 26.1678 118.506 25.9427C118.306 25.7176 118.206 25.455 118.206 25.1548V14.6492C118.206 13.6236 118.043 12.6856 117.718 11.8351C117.393 10.9847 116.88 10.3093 116.18 9.80905C115.479 9.30878 114.541 9.05865 113.366 9.05865C112.34 9.05865 111.352 9.30878 110.402 9.80905C109.476 10.3093 108.713 10.9847 108.113 11.8351C107.538 12.6856 107.25 13.6236 107.25 14.6492V25.1548C107.25 25.455 107.137 25.7176 106.912 25.9427C106.712 26.1678 106.449 26.2804 106.124 26.2804C105.799 26.2804 105.524 26.1678 105.299 25.9427C105.099 25.7176 104.999 25.455 104.999 25.1548V14.5366C104.999 13.511 104.849 12.5855 104.548 11.7601C104.248 10.9347 103.76 10.2843 103.085 9.80905C102.41 9.30878 101.497 9.05865 100.346 9.05865C99.3204 9.05865 98.3449 9.30878 97.4194 9.80905C96.5189 10.2843 95.781 10.9347 95.2056 11.7601C94.6553 12.5855 94.3802 13.511 94.3802 14.5366V25.1548C94.3802 25.455 94.2676 25.7176 94.0425 25.9427C93.8174 26.1678 93.5547 26.2804 93.2545 26.2804C92.9043 26.2804 92.6292 26.1678 92.4291 25.9427C92.229 25.7176 92.1289 25.455 92.1289 25.1548V8.34577C92.1289 8.04561 92.229 7.78296 92.4291 7.55784C92.6542 7.33272 92.9294 7.22016 93.2545 7.22016C93.5797 7.22016 93.8424 7.33272 94.0425 7.55784C94.2676 7.78296 94.3802 8.04561 94.3802 8.34577V11.8351L93.3671 13.2234C93.4421 12.473 93.6798 11.7226 94.08 10.9722C94.5052 10.2218 95.0555 9.54641 95.7309 8.94609C96.4063 8.34577 97.1692 7.87051 98.0197 7.52032C98.8952 7.14512 99.8082 6.95752 100.759 6.95752Z" fill="#F9EEE3"/>
<path d="M86.2807 25.1555C86.2807 25.4556 86.1681 25.7183 85.943 25.9434C85.7179 26.1685 85.4552 26.2811 85.1551 26.2811C84.8299 26.2811 84.5547 26.1685 84.3296 25.9434C84.1295 25.7183 84.0294 25.4556 84.0294 25.1555V7.8962C84.0294 7.59604 84.1295 7.3334 84.3296 7.10828C84.5547 6.88315 84.8299 6.77059 85.1551 6.77059C85.4802 6.77059 85.7429 6.88315 85.943 7.10828C86.1681 7.3334 86.2807 7.59604 86.2807 7.8962V25.1555ZM88.3819 3.8065C87.8816 3.8065 87.4939 3.68143 87.2187 3.4313C86.9686 3.15615 86.8435 2.78095 86.8435 2.30569V1.93049C86.8435 1.45524 86.9811 1.09254 87.2562 0.842408C87.5314 0.567261 87.9191 0.429688 88.4194 0.429688C88.8946 0.429688 89.2573 0.567261 89.5075 0.842408C89.7826 1.09254 89.9202 1.45524 89.9202 1.93049V2.30569C89.9202 2.80596 89.7826 3.18117 89.5075 3.4313C89.2323 3.68143 88.8571 3.8065 88.3819 3.8065ZM81.9283 3.8065C81.428 3.8065 81.0528 3.68143 80.8026 3.4313C80.5275 3.15615 80.3899 2.78095 80.3899 2.30569V1.93049C80.3899 1.45524 80.5275 1.09254 80.8026 0.842408C81.0778 0.567261 81.453 0.429688 81.9283 0.429688C82.4285 0.429688 82.8037 0.567261 83.0539 0.842408C83.329 1.09254 83.4666 1.45524 83.4666 1.93049V2.30569C83.4666 2.80596 83.329 3.18117 83.0539 3.4313C82.7787 3.68143 82.4035 3.8065 81.9283 3.8065Z" fill="#F9EEE3"/>
<path d="M77.071 7.10796C77.3962 7.10796 77.6589 7.22052 77.859 7.44564C78.0841 7.67076 78.1967 7.94591 78.1967 8.27108V25.1552C78.1967 25.4553 78.0841 25.718 77.859 25.9431C77.6338 26.1682 77.3712 26.2808 77.071 26.2808C76.7459 26.2808 76.4707 26.1682 76.2456 25.9431C76.0455 25.718 75.9454 25.4553 75.9454 25.1552V20.6903L76.5833 20.3901C76.5833 21.0905 76.3831 21.8034 75.9829 22.5287C75.6077 23.2541 75.0824 23.9295 74.407 24.5548C73.7317 25.1802 72.9312 25.6929 72.0057 26.0932C71.1052 26.4684 70.1297 26.656 69.0791 26.656C67.3781 26.656 65.8523 26.2182 64.5015 25.3428C63.1758 24.4673 62.1252 23.2666 61.3498 21.7408C60.5993 20.215 60.2241 18.5016 60.2241 16.6006C60.2241 14.6495 60.6118 12.9361 61.3873 11.4603C62.1627 9.95949 63.2133 8.78386 64.539 7.9334C65.8648 7.08294 67.3656 6.65771 69.0415 6.65771C70.1171 6.65771 71.1177 6.84532 72.0432 7.22052C72.9938 7.59572 73.8192 8.10849 74.5196 8.75884C75.22 9.40919 75.7578 10.1596 76.133 11.0101C76.5332 11.8355 76.7333 12.6985 76.7333 13.5989L75.9454 13.0361V8.27108C75.9454 7.94591 76.0455 7.67076 76.2456 7.44564C76.4707 7.22052 76.7459 7.10796 77.071 7.10796ZM69.2667 24.5548C70.5924 24.5548 71.7681 24.2172 72.7936 23.5418C73.8192 22.8414 74.6197 21.8909 75.195 20.6903C75.7953 19.4646 76.0955 18.1014 76.0955 16.6006C76.0955 15.1248 75.7953 13.7991 75.195 12.6234C74.6197 11.4478 73.8192 10.5098 72.7936 9.80941C71.7681 9.10903 70.5924 8.75884 69.2667 8.75884C67.9659 8.75884 66.7903 9.09653 65.7397 9.77189C64.7141 10.4473 63.9012 11.3727 63.3008 12.5484C62.7255 13.724 62.4379 15.0747 62.4379 16.6006C62.4379 18.1014 62.7255 19.4646 63.3008 20.6903C63.9012 21.8909 64.7141 22.8414 65.7397 23.5418C66.7653 24.2172 67.9409 24.5548 69.2667 24.5548Z" fill="#F9EEE3"/>
<path d="M48.7008 6.65771C50.3517 6.65771 51.6649 6.9954 52.6405 7.67076C53.641 8.32111 54.3539 9.22159 54.7792 10.3722C55.2294 11.4978 55.4545 12.7485 55.4545 14.1242V25.1552C55.4545 25.4553 55.342 25.718 55.1168 25.9431C54.8917 26.1682 54.6291 26.2808 54.3289 26.2808C53.9787 26.2808 53.7036 26.1682 53.5034 25.9431C53.3033 25.718 53.2033 25.4553 53.2033 25.1552V14.2368C53.2033 13.2362 53.0407 12.3233 52.7155 11.4978C52.3903 10.6724 51.8525 10.0095 51.1021 9.50925C50.3767 9.00898 49.4137 8.75884 48.213 8.75884C47.1374 8.75884 46.1118 9.00898 45.1363 9.50925C44.1857 10.0095 43.4103 10.6724 42.81 11.4978C42.2096 12.3233 41.9095 13.2362 41.9095 14.2368V25.1552C41.9095 25.4553 41.7969 25.718 41.5718 25.9431C41.3466 26.1682 41.084 26.2808 40.7838 26.2808C40.4336 26.2808 40.1585 26.1682 39.9584 25.9431C39.7583 25.718 39.6582 25.4553 39.6582 25.1552V8.34612C39.6582 8.04596 39.7583 7.78332 39.9584 7.5582C40.1835 7.33308 40.4587 7.22052 40.7838 7.22052C41.109 7.22052 41.3717 7.33308 41.5718 7.5582C41.7969 7.78332 41.9095 8.04596 41.9095 8.34612V11.4978L41.0465 12.8485C41.0965 12.0481 41.3466 11.2852 41.7969 10.5598C42.2722 9.80941 42.8725 9.14655 43.5979 8.57124C44.3233 7.97092 45.1238 7.50817 45.9992 7.183C46.8997 6.83281 47.8003 6.65771 48.7008 6.65771Z" fill="#F9EEE3"/>
<path fill-rule="evenodd" clip-rule="evenodd" d="M65.3228 1.93327C65.3228 1.24687 65.5355 0.69043 66.1399 0.69043H77.5099C78.1143 0.69043 78.1965 1.24687 78.1965 1.93327C78.1965 2.61967 78.1143 3.1761 77.5099 3.1761H66.1399C65.5355 3.1761 65.3228 2.61967 65.3228 1.93327Z" fill="#F9EEE3"/>
<path d="M114.277 34.5693C114.383 34.5693 114.471 34.6069 114.54 34.6821C114.615 34.7511 114.653 34.8388 114.653 34.9454V39.091C114.653 39.1975 114.615 39.2884 114.54 39.3636C114.471 39.4388 114.383 39.4764 114.277 39.4764C114.164 39.4764 114.073 39.4388 114.004 39.3636C113.935 39.2884 113.901 39.1975 113.901 39.091V38.1979L114.079 38.1791C114.079 38.317 114.032 38.4674 113.938 38.6303C113.844 38.7933 113.716 38.9468 113.553 39.091C113.39 39.2288 113.196 39.3448 112.97 39.4388C112.751 39.5265 112.512 39.5704 112.256 39.5704C111.829 39.5704 111.447 39.4607 111.109 39.2414C110.77 39.0158 110.501 38.7118 110.3 38.3295C110.106 37.9472 110.009 37.5117 110.009 37.0229C110.009 36.5278 110.106 36.0922 110.3 35.7162C110.501 35.3339 110.77 35.0362 111.109 34.8232C111.447 34.6038 111.823 34.4941 112.237 34.4941C112.506 34.4941 112.757 34.538 112.989 34.6257C113.221 34.7135 113.421 34.8326 113.59 34.983C113.766 35.1334 113.901 35.2994 113.995 35.4812C114.095 35.6629 114.145 35.8447 114.145 36.0264L113.901 35.97V34.9454C113.901 34.8388 113.935 34.7511 114.004 34.6821C114.073 34.6069 114.164 34.5693 114.277 34.5693ZM112.34 38.8747C112.654 38.8747 112.929 38.7933 113.167 38.6303C113.412 38.4674 113.6 38.248 113.731 37.9723C113.869 37.6903 113.938 37.3738 113.938 37.0229C113.938 36.6782 113.869 36.368 113.731 36.0922C113.6 35.8102 113.412 35.5909 113.167 35.4342C112.929 35.2712 112.654 35.1898 112.34 35.1898C112.033 35.1898 111.757 35.2681 111.513 35.4248C111.275 35.5815 111.087 35.7977 110.949 36.0734C110.811 36.3492 110.742 36.6656 110.742 37.0229C110.742 37.3738 110.808 37.6903 110.939 37.9723C111.077 38.248 111.265 38.4674 111.503 38.6303C111.748 38.7933 112.027 38.8747 112.34 38.8747Z" fill="#F9EEE3"/>
<path d="M106.985 39.4764C106.878 39.4764 106.787 39.4388 106.712 39.3636C106.643 39.2884 106.609 39.1975 106.609 39.091V34.9924C106.609 34.8858 106.643 34.7981 106.712 34.7292C106.787 34.6539 106.878 34.6163 106.985 34.6163C107.098 34.6163 107.189 34.6539 107.258 34.7292C107.326 34.7981 107.361 34.8858 107.361 34.9924V36.2332L107.248 36.0358C107.286 35.8415 107.352 35.6535 107.446 35.4718C107.546 35.2838 107.671 35.1177 107.822 34.9736C107.972 34.8232 108.144 34.7072 108.339 34.6257C108.533 34.538 108.746 34.4941 108.978 34.4941C109.116 34.4941 109.241 34.5286 109.354 34.5975C109.473 34.6602 109.532 34.7511 109.532 34.8702C109.532 35.0018 109.498 35.0989 109.429 35.1616C109.36 35.2242 109.282 35.2556 109.194 35.2556C109.113 35.2556 109.034 35.2399 108.959 35.2086C108.884 35.171 108.79 35.1522 108.677 35.1522C108.52 35.1522 108.364 35.196 108.207 35.2838C108.057 35.3652 107.916 35.4843 107.784 35.641C107.659 35.7977 107.555 35.9763 107.474 36.1768C107.399 36.3711 107.361 36.581 107.361 36.8066V39.091C107.361 39.1975 107.323 39.2884 107.248 39.3636C107.179 39.4388 107.091 39.4764 106.985 39.4764Z" fill="#F9EEE3"/>
<path d="M105.478 37.0323C105.478 37.5211 105.368 37.9566 105.149 38.3389C104.936 38.7212 104.644 39.022 104.275 39.2414C103.911 39.4607 103.501 39.5704 103.043 39.5704C102.586 39.5704 102.172 39.4607 101.802 39.2414C101.432 39.022 101.138 38.7212 100.918 38.3389C100.705 37.9566 100.599 37.5211 100.599 37.0323C100.599 36.5434 100.705 36.1079 100.918 35.7256C101.138 35.3433 101.432 35.0425 101.802 34.8232C102.172 34.6038 102.586 34.4941 103.043 34.4941C103.501 34.4941 103.911 34.6038 104.275 34.8232C104.644 35.0425 104.936 35.3433 105.149 35.7256C105.368 36.1079 105.478 36.5434 105.478 37.0323ZM104.726 37.0323C104.726 36.6688 104.651 36.3492 104.5 36.0734C104.356 35.7977 104.155 35.5815 103.899 35.4248C103.648 35.2681 103.363 35.1898 103.043 35.1898C102.723 35.1898 102.435 35.2681 102.178 35.4248C101.927 35.5815 101.727 35.7977 101.577 36.0734C101.426 36.3492 101.351 36.6688 101.351 37.0323C101.351 37.3895 101.426 37.706 101.577 37.9817C101.727 38.2575 101.927 38.4768 102.178 38.6397C102.435 38.7964 102.723 38.8747 103.043 38.8747C103.363 38.8747 103.648 38.7964 103.899 38.6397C104.155 38.4768 104.356 38.2575 104.5 37.9817C104.651 37.706 104.726 37.3895 104.726 37.0323Z" fill="#F9EEE3"/>
<path d="M97.3051 34.6447H99.5143C99.6145 34.6447 99.696 34.6791 99.7587 34.7481C99.8276 34.817 99.8621 34.8985 99.8621 34.9925C99.8621 35.0928 99.8276 35.1774 99.7587 35.2463C99.696 35.309 99.6145 35.3403 99.5143 35.3403H97.3051C97.2111 35.3403 97.1296 35.3058 97.0607 35.2369C96.9917 35.168 96.9573 35.0834 96.9573 34.9831C96.9573 34.8891 96.9917 34.8107 97.0607 34.7481C97.1296 34.6791 97.2111 34.6447 97.3051 34.6447ZM98.2922 33.3662C98.3987 33.3662 98.4864 33.4038 98.5554 33.479C98.6243 33.548 98.6588 33.6357 98.6588 33.7422V38.2826C98.6588 38.433 98.6807 38.5459 98.7246 38.6211C98.7685 38.6963 98.8249 38.7495 98.8938 38.7809C98.969 38.8059 99.0411 38.8185 99.11 38.8185C99.1727 38.8185 99.226 38.8091 99.2698 38.7903C99.32 38.7652 99.3764 38.7527 99.439 38.7527C99.5017 38.7527 99.5581 38.784 99.6083 38.8467C99.6647 38.9031 99.6929 38.9783 99.6929 39.0723C99.6929 39.1851 99.6271 39.2822 99.4955 39.3637C99.3638 39.4389 99.2166 39.4765 99.0536 39.4765C98.9659 39.4765 98.8562 39.4702 98.7246 39.4577C98.5993 39.4452 98.4739 39.4044 98.3486 39.3355C98.2232 39.2666 98.1167 39.1537 98.029 38.9971C97.9475 38.8341 97.9067 38.6085 97.9067 38.3202V33.7422C97.9067 33.6357 97.9443 33.548 98.0195 33.479C98.0948 33.4038 98.1856 33.3662 98.2922 33.3662Z" fill="#F9EEE3"/>
<path d="M94.7801 34.4941C95.0997 34.4941 95.388 34.5286 95.645 34.5975C95.9019 34.6665 96.1056 34.7605 96.256 34.8796C96.4064 34.9986 96.4816 35.1334 96.4816 35.2838C96.4816 35.3652 96.4534 35.4436 96.397 35.5188C96.3406 35.594 96.2654 35.6316 96.1714 35.6316C96.0837 35.6316 96.0116 35.6159 95.9552 35.5846C95.905 35.5533 95.8549 35.5125 95.8048 35.4624C95.7609 35.4122 95.6982 35.3684 95.6168 35.3308C95.5415 35.2869 95.4319 35.2524 95.2877 35.2274C95.1436 35.2023 94.9994 35.1898 94.8553 35.1898C94.5106 35.1898 94.2067 35.2712 93.9434 35.4342C93.6865 35.5971 93.4828 35.8165 93.3324 36.0922C93.182 36.368 93.1068 36.6813 93.1068 37.0323C93.1068 37.3832 93.1789 37.6966 93.323 37.9723C93.4671 38.248 93.6677 38.4674 93.9246 38.6303C94.1816 38.7933 94.4793 38.8747 94.8177 38.8747C95.0371 38.8747 95.2125 38.8559 95.3441 38.8183C95.4757 38.7807 95.5854 38.7369 95.6732 38.6867C95.786 38.6241 95.8706 38.5614 95.927 38.4987C95.9896 38.4361 96.0711 38.4047 96.1714 38.4047C96.2779 38.4047 96.3594 38.4392 96.4158 38.5081C96.4785 38.5771 96.5098 38.6617 96.5098 38.7619C96.5098 38.8747 96.4315 38.9938 96.2748 39.1192C96.1181 39.2445 95.905 39.351 95.6356 39.4388C95.3723 39.5265 95.0715 39.5704 94.7331 39.5704C94.2568 39.5704 93.84 39.4607 93.4828 39.2414C93.1256 39.0158 92.8467 38.7118 92.6462 38.3295C92.4519 37.941 92.3547 37.5085 92.3547 37.0323C92.3547 36.556 92.455 36.1267 92.6556 35.7444C92.8624 35.3621 93.1475 35.0582 93.511 34.8326C93.8745 34.6069 94.2975 34.4941 94.7801 34.4941Z" fill="#F9EEE3"/>
<path d="M90.8487 34.6167C90.9615 34.6167 91.0524 34.6543 91.1214 34.7295C91.1903 34.7984 91.2248 34.8862 91.2248 34.9927V37.559C91.2248 38.192 91.0462 38.684 90.6889 39.0349C90.338 39.3796 89.846 39.5519 89.213 39.5519C88.5863 39.5519 88.0944 39.3796 87.7371 39.0349C87.3862 38.684 87.2107 38.192 87.2107 37.559V34.9927C87.2107 34.8862 87.2452 34.7984 87.3141 34.7295C87.3893 34.6543 87.4802 34.6167 87.5867 34.6167C87.6995 34.6167 87.7904 34.6543 87.8593 34.7295C87.9283 34.7984 87.9627 34.8862 87.9627 34.9927V37.559C87.9627 37.9852 88.0724 38.3079 88.2918 38.5273C88.5111 38.7466 88.8182 38.8563 89.213 38.8563C89.6204 38.8563 89.9306 38.7466 90.1437 38.5273C90.363 38.3079 90.4727 37.9852 90.4727 37.559V34.9927C90.4727 34.8862 90.5072 34.7984 90.5761 34.7295C90.6513 34.6543 90.7422 34.6167 90.8487 34.6167Z" fill="#F9EEE3"/>
<path d="M85.2935 32.52C85.4001 32.52 85.4878 32.5576 85.5567 32.6328C85.6319 32.7018 85.6695 32.7895 85.6695 32.896V39.0909C85.6695 39.1975 85.6319 39.2883 85.5567 39.3635C85.4878 39.4387 85.4001 39.4763 85.2935 39.4763C85.1807 39.4763 85.0898 39.4387 85.0209 39.3635C84.952 39.2883 84.9175 39.1975 84.9175 39.0909V38.1979L85.0961 38.1321C85.0961 38.2825 85.0491 38.4423 84.9551 38.6115C84.8611 38.7744 84.7326 38.928 84.5697 39.0721C84.4067 39.2163 84.2125 39.3353 83.9868 39.4293C83.7675 39.5233 83.5293 39.5703 83.2724 39.5703C82.8525 39.5703 82.4702 39.4607 82.1255 39.2413C81.7871 39.022 81.5176 38.7212 81.3171 38.3389C81.1228 37.9566 81.0256 37.5211 81.0256 37.0322C81.0256 36.5371 81.1228 36.0985 81.3171 35.7162C81.5176 35.3339 81.7871 35.0362 82.1255 34.8231C82.4639 34.6038 82.84 34.4941 83.2536 34.4941C83.5168 34.4941 83.7644 34.538 83.9962 34.6257C84.2281 34.7135 84.4287 34.8325 84.5979 34.9829C84.7734 35.1333 84.9112 35.2994 85.0115 35.4812C85.1118 35.6629 85.1619 35.8446 85.1619 36.0264L84.9175 35.97V32.896C84.9175 32.7895 84.952 32.7018 85.0209 32.6328C85.0898 32.5576 85.1807 32.52 85.2935 32.52ZM83.357 38.8747C83.6703 38.8747 83.9461 38.7964 84.1843 38.6397C84.4287 38.4768 84.6167 38.2574 84.7483 37.9817C84.8862 37.6997 84.9551 37.3832 84.9551 37.0322C84.9551 36.675 84.8862 36.3585 84.7483 36.0828C84.6167 35.807 84.4287 35.5908 84.1843 35.4342C83.9461 35.2712 83.6703 35.1897 83.357 35.1897C83.0499 35.1897 82.7742 35.2712 82.5297 35.4342C82.2916 35.5908 82.1036 35.807 81.9657 36.0828C81.8278 36.3585 81.7589 36.675 81.7589 37.0322C81.7589 37.3769 81.8278 37.6903 81.9657 37.9723C82.1036 38.248 82.2916 38.4674 82.5297 38.6303C82.7742 38.7932 83.0499 38.8747 83.357 38.8747Z" fill="#F9EEE3"/>
<path d="M80.158 37.0323C80.158 37.5211 80.0483 37.9566 79.829 38.3389C79.6159 38.7212 79.3245 39.022 78.9547 39.2414C78.5912 39.4607 78.1807 39.5704 77.7232 39.5704C77.2657 39.5704 76.8521 39.4607 76.4823 39.2414C76.1126 39.022 75.818 38.7212 75.5987 38.3389C75.3856 37.9566 75.2791 37.5211 75.2791 37.0323C75.2791 36.5434 75.3856 36.1079 75.5987 35.7256C75.818 35.3433 76.1126 35.0425 76.4823 34.8232C76.8521 34.6038 77.2657 34.4941 77.7232 34.4941C78.1807 34.4941 78.5912 34.6038 78.9547 34.8232C79.3245 35.0425 79.6159 35.3433 79.829 35.7256C80.0483 36.1079 80.158 36.5434 80.158 37.0323ZM79.4059 37.0323C79.4059 36.6688 79.3307 36.3492 79.1803 36.0734C79.0362 35.7977 78.8356 35.5815 78.5787 35.4248C78.328 35.2681 78.0428 35.1898 77.7232 35.1898C77.4036 35.1898 77.1153 35.2681 76.8584 35.4248C76.6077 35.5815 76.4071 35.7977 76.2567 36.0734C76.1063 36.3492 76.0311 36.6688 76.0311 37.0323C76.0311 37.3895 76.1063 37.706 76.2567 37.9817C76.4071 38.2575 76.6077 38.4768 76.8584 38.6397C77.1153 38.7964 77.4036 38.8747 77.7232 38.8747C78.0428 38.8747 78.328 38.7964 78.5787 38.6397C78.8356 38.4768 79.0362 38.2575 79.1803 37.9817C79.3307 37.706 79.4059 37.3895 79.4059 37.0323Z" fill="#F9EEE3"/>
<path d="M72.3562 39.4764C72.2497 39.4764 72.1588 39.4388 72.0836 39.3636C72.0147 39.2884 71.9802 39.1975 71.9802 39.091V34.9924C71.9802 34.8858 72.0147 34.7981 72.0836 34.7292C72.1588 34.6539 72.2497 34.6163 72.3562 34.6163C72.4691 34.6163 72.5599 34.6539 72.6289 34.7292C72.6978 34.7981 72.7323 34.8858 72.7323 34.9924V36.2332L72.6195 36.0358C72.6571 35.8415 72.7229 35.6535 72.8169 35.4718C72.9172 35.2838 73.0425 35.1177 73.1929 34.9736C73.3433 34.8232 73.5157 34.7072 73.7099 34.6257C73.9042 34.538 74.1173 34.4941 74.3492 34.4941C74.4871 34.4941 74.6124 34.5286 74.7252 34.5975C74.8443 34.6602 74.9038 34.7511 74.9038 34.8702C74.9038 35.0018 74.8694 35.0989 74.8004 35.1616C74.7315 35.2242 74.6531 35.2556 74.5654 35.2556C74.4839 35.2556 74.4056 35.2399 74.3304 35.2086C74.2552 35.171 74.1612 35.1522 74.0484 35.1522C73.8917 35.1522 73.735 35.196 73.5783 35.2838C73.4279 35.3652 73.2869 35.4843 73.1553 35.641C73.03 35.7977 72.9266 35.9763 72.8451 36.1768C72.7699 36.3711 72.7323 36.581 72.7323 36.8066V39.091C72.7323 39.1975 72.6947 39.2884 72.6195 39.3636C72.5505 39.4388 72.4628 39.4764 72.3562 39.4764Z" fill="#F9EEE3"/>
<path d="M69.0602 32.8965C69.4048 32.8965 69.7151 32.9811 69.9908 33.1503C70.2666 33.3195 70.4828 33.5514 70.6395 33.8459C70.8024 34.1405 70.8839 34.4758 70.8839 34.8518C70.8839 35.2215 70.8024 35.5568 70.6395 35.8576C70.4828 36.1584 70.2666 36.3966 69.9908 36.5721C69.7151 36.7475 69.4048 36.8353 69.0602 36.8353H67.1518L67.2176 36.7225V39.0914C67.2176 39.1979 67.1832 39.2888 67.1142 39.364C67.0453 39.4392 66.9575 39.4768 66.851 39.4768C66.7382 39.4768 66.6473 39.4392 66.5784 39.364C66.5157 39.2888 66.4844 39.1979 66.4844 39.0914V33.2725C66.4844 33.166 66.5188 33.0782 66.5878 33.0093C66.663 32.9341 66.7539 32.8965 66.8604 32.8965H69.0602ZM69.0602 36.1114C69.267 36.1114 69.4487 36.055 69.6054 35.9422C69.7621 35.8294 69.8874 35.6759 69.9814 35.4816C70.0754 35.2873 70.1224 35.0774 70.1224 34.8518C70.1224 34.6136 70.0754 34.4037 69.9814 34.2219C69.8874 34.0402 69.7621 33.8961 69.6054 33.7895C69.4487 33.6767 69.267 33.6203 69.0602 33.6203H67.1518L67.2176 33.5169V36.2054L67.1518 36.1114H69.0602Z" fill="#F9EEE3"/>
<path d="M61.994 34.5693C62.1005 34.5693 62.1882 34.6069 62.2572 34.6821C62.3324 34.7511 62.37 34.8388 62.37 34.9454V39.091C62.37 39.1975 62.3324 39.2884 62.2572 39.3636C62.1882 39.4388 62.1005 39.4764 61.994 39.4764C61.8812 39.4764 61.7903 39.4388 61.7213 39.3636C61.6524 39.2884 61.6179 39.1975 61.6179 39.091V38.1979L61.7966 38.1791C61.7966 38.317 61.7495 38.4674 61.6555 38.6303C61.5615 38.7933 61.4331 38.9468 61.2701 39.091C61.1072 39.2288 60.9129 39.3448 60.6873 39.4388C60.4679 39.5265 60.2298 39.5704 59.9728 39.5704C59.5467 39.5704 59.1644 39.4607 58.8259 39.2414C58.4875 39.0158 58.218 38.7118 58.0175 38.3295C57.8232 37.9472 57.7261 37.5117 57.7261 37.0229C57.7261 36.5278 57.8232 36.0922 58.0175 35.7162C58.218 35.3339 58.4875 35.0362 58.8259 34.8232C59.1644 34.6038 59.5404 34.4941 59.954 34.4941C60.2235 34.4941 60.4742 34.538 60.7061 34.6257C60.938 34.7135 61.1385 34.8326 61.3077 34.983C61.4832 35.1334 61.6179 35.2994 61.7119 35.4812C61.8122 35.6629 61.8624 35.8447 61.8624 36.0264L61.6179 35.97V34.9454C61.6179 34.8388 61.6524 34.7511 61.7213 34.6821C61.7903 34.6069 61.8812 34.5693 61.994 34.5693ZM60.0574 38.8747C60.3708 38.8747 60.6465 38.7933 60.8847 38.6303C61.1291 38.4674 61.3171 38.248 61.4487 37.9723C61.5866 37.6903 61.6555 37.3738 61.6555 37.0229C61.6555 36.6782 61.5866 36.368 61.4487 36.0922C61.3171 35.8102 61.1291 35.5909 60.8847 35.4342C60.6465 35.2712 60.3708 35.1898 60.0574 35.1898C59.7503 35.1898 59.4746 35.2681 59.2302 35.4248C58.992 35.5815 58.804 35.7977 58.6661 36.0734C58.5283 36.3492 58.4593 36.6656 58.4593 37.0229C58.4593 37.3738 58.5251 37.6903 58.6567 37.9723C58.7946 38.248 58.9826 38.4674 59.2208 38.6303C59.4652 38.7933 59.7441 38.8747 60.0574 38.8747Z" fill="#F9EEE3"/>
<path d="M53.1911 38.7055C53.1347 38.6241 53.1097 38.5395 53.1159 38.4517C53.1222 38.3577 53.1755 38.2763 53.2757 38.2073C53.3384 38.1634 53.4105 38.1446 53.492 38.1509C53.5797 38.1572 53.658 38.1979 53.727 38.2731C53.9025 38.4799 54.103 38.646 54.3286 38.7713C54.5542 38.8904 54.83 38.9499 55.1559 38.9499C55.3063 38.9437 55.4567 38.9186 55.6071 38.8747C55.7575 38.8309 55.8829 38.7557 55.9831 38.6491C56.0897 38.5363 56.1429 38.3891 56.1429 38.2073C56.1429 38.0318 56.0897 37.894 55.9831 37.7937C55.8766 37.6872 55.7387 37.6026 55.5695 37.5399C55.4003 37.4709 55.2154 37.4114 55.0149 37.3613C54.808 37.3049 54.6044 37.2422 54.4038 37.1733C54.2033 37.0981 54.0215 37.0072 53.8586 36.9007C53.7019 36.7878 53.5734 36.65 53.4732 36.487C53.3791 36.3178 53.3321 36.1141 53.3321 35.876C53.3321 35.594 53.4074 35.3496 53.5578 35.1428C53.7144 34.936 53.9213 34.7762 54.1782 34.6633C54.4414 34.5505 54.7266 34.4941 55.0337 34.4941C55.2091 34.4941 55.3909 34.5161 55.5789 34.5599C55.7732 34.5975 55.9612 34.6665 56.1429 34.7668C56.3247 34.8608 56.4845 34.9924 56.6224 35.1616C56.6788 35.2242 56.7101 35.3026 56.7164 35.3966C56.7226 35.4906 56.6819 35.5752 56.5942 35.6504C56.5252 35.7005 56.4469 35.7225 56.3592 35.7162C56.2777 35.7099 56.2087 35.6786 56.1523 35.6222C56.0207 35.4655 55.8547 35.3464 55.6541 35.265C55.4598 35.1772 55.2436 35.1334 55.0055 35.1334C54.855 35.1334 54.7078 35.1553 54.5636 35.1992C54.4195 35.243 54.2973 35.3182 54.197 35.4248C54.103 35.5251 54.056 35.6661 54.056 35.8478C54.0623 36.017 54.1187 36.1549 54.2252 36.2614C54.3317 36.368 54.4759 36.4557 54.6576 36.5246C54.8394 36.5873 55.0399 36.65 55.2593 36.7126C55.4598 36.7628 55.651 36.8223 55.8327 36.8913C56.0207 36.9539 56.1899 37.0385 56.3404 37.1451C56.4908 37.2516 56.6098 37.3895 56.6976 37.5587C56.7853 37.7216 56.8292 37.9284 56.8292 38.1791C56.8292 38.4674 56.7477 38.7181 56.5848 38.9311C56.4218 39.138 56.2056 39.2978 55.9361 39.4106C55.6729 39.5171 55.3878 39.5704 55.0807 39.5704C54.736 39.5704 54.3944 39.5046 54.056 39.373C53.7238 39.2414 53.4356 39.0189 53.1911 38.7055Z" fill="#F9EEE3"/>
<path d="M51.6939 34.5693C51.8005 34.5693 51.8882 34.6069 51.9571 34.6821C52.0323 34.7511 52.0699 34.8388 52.0699 34.9454V39.091C52.0699 39.1975 52.0323 39.2884 51.9571 39.3636C51.8882 39.4388 51.8005 39.4764 51.6939 39.4764C51.5811 39.4764 51.4902 39.4388 51.4213 39.3636C51.3524 39.2884 51.3179 39.1975 51.3179 39.091V38.1979L51.4965 38.1791C51.4965 38.317 51.4495 38.4674 51.3555 38.6303C51.2615 38.7933 51.133 38.9468 50.9701 39.091C50.8071 39.2288 50.6128 39.3448 50.3872 39.4388C50.1679 39.5265 49.9297 39.5704 49.6728 39.5704C49.2466 39.5704 48.8643 39.4607 48.5259 39.2414C48.1875 39.0158 47.918 38.7118 47.7174 38.3295C47.5232 37.9472 47.426 37.5117 47.426 37.0229C47.426 36.5278 47.5232 36.0922 47.7174 35.7162C47.918 35.3339 48.1875 35.0362 48.5259 34.8232C48.8643 34.6038 49.2403 34.4941 49.654 34.4941C49.9235 34.4941 50.1741 34.538 50.406 34.6257C50.6379 34.7135 50.8385 34.8326 51.0077 34.983C51.1831 35.1334 51.3179 35.2994 51.4119 35.4812C51.5122 35.6629 51.5623 35.8447 51.5623 36.0264L51.3179 35.97V34.9454C51.3179 34.8388 51.3524 34.7511 51.4213 34.6821C51.4902 34.6069 51.5811 34.5693 51.6939 34.5693ZM49.7574 38.8747C50.0707 38.8747 50.3465 38.7933 50.5846 38.6303C50.8291 38.4674 51.0171 38.248 51.1487 37.9723C51.2866 37.6903 51.3555 37.3738 51.3555 37.0229C51.3555 36.6782 51.2866 36.368 51.1487 36.0922C51.0171 35.8102 50.8291 35.5909 50.5846 35.4342C50.3465 35.2712 50.0707 35.1898 49.7574 35.1898C49.4503 35.1898 49.1745 35.2681 48.9301 35.4248C48.692 35.5815 48.504 35.7977 48.3661 36.0734C48.2282 36.3492 48.1593 36.6656 48.1593 37.0229C48.1593 37.3738 48.2251 37.6903 48.3567 37.9723C48.4946 38.248 48.6826 38.4674 48.9207 38.6303C49.1651 38.7933 49.444 38.8747 49.7574 38.8747Z" fill="#F9EEE3"/>
<path d="M46.4996 33.3289C46.6061 33.3853 46.6656 33.4699 46.6782 33.5827C46.697 33.6955 46.6688 33.7989 46.5936 33.8929C46.5372 33.9744 46.4651 34.0183 46.3774 34.0245C46.2896 34.0308 46.2019 34.012 46.1141 33.9681C45.9073 33.8428 45.6849 33.7457 45.4467 33.6767C45.2086 33.6015 44.9579 33.5639 44.6946 33.5639C44.3249 33.5639 43.9865 33.6297 43.6794 33.7613C43.3723 33.8867 43.1059 34.0653 42.8803 34.2972C42.6547 34.529 42.4792 34.8048 42.3539 35.1244C42.2285 35.444 42.1659 35.7981 42.1659 36.1866C42.1659 36.6003 42.2317 36.97 42.3633 37.2959C42.4949 37.6218 42.6735 37.9007 42.8991 38.1325C43.131 38.3581 43.3974 38.5305 43.6982 38.6496C44.0053 38.7686 44.3374 38.8282 44.6946 38.8282C44.9516 38.8282 45.1992 38.7937 45.4373 38.7248C45.6754 38.6558 45.9011 38.5556 46.1141 38.424C46.2019 38.3801 46.2896 38.3644 46.3774 38.3769C46.4651 38.3895 46.5403 38.4334 46.603 38.5086C46.6782 38.6088 46.7064 38.7154 46.6876 38.8282C46.6688 38.9347 46.6092 39.013 46.509 39.0632C46.3523 39.1572 46.1737 39.2449 45.9731 39.3264C45.7726 39.4016 45.5626 39.4611 45.3433 39.505C45.1302 39.5489 44.914 39.5708 44.6946 39.5708C44.2434 39.5708 43.8173 39.4925 43.4162 39.3358C43.0151 39.1791 42.661 38.9535 42.3539 38.659C42.0468 38.3644 41.8024 38.0103 41.6206 37.5967C41.4452 37.1768 41.3574 36.7068 41.3574 36.1866C41.3574 35.6978 41.442 35.2497 41.6112 34.8424C41.7805 34.435 42.0155 34.0809 42.3163 33.7801C42.6234 33.4793 42.9775 33.2443 43.3786 33.0751C43.7859 32.9059 44.2246 32.8213 44.6946 32.8213C45.0205 32.8213 45.337 32.8652 45.6441 32.9529C45.9575 33.0406 46.2426 33.166 46.4996 33.3289Z" fill="#F9EEE3"/>
</svg>
