<svg width="152" height="48" viewBox="0 0 152 48" fill="none" xmlns="http://www.w3.org/2000/svg">
<g filter="url(#filter0_d_221_263)">
<path d="M22.4246 20.0106C17.7601 13.7158 17.6683 10.4958 22.4246 2.60596C27.3688 9.7324 27.3241 13.5304 22.4246 20.0106ZM22.4246 20.0106C29.3617 15.5457 33.14 15.5171 39.6697 20.0106C32.7643 24.7549 29.0025 24.367 22.4246 20.0106ZM22.4246 20.0106C27.0592 26.5139 27.0612 30.3189 22.4246 37.3933C17.5767 30.8069 17.6143 27.006 22.4246 20.0106ZM22.4246 20.0106C15.9042 15.4537 12.0956 15.3573 5.00391 20.0106C11.9285 24.9151 15.7483 24.8832 22.4246 20.0106Z" stroke="#F9F1E3" stroke-width="1.4" stroke-linejoin="round"/>
<mask id="path-2-inside-1_221_263" fill="white">
<ellipse cx="32.1141" cy="11.1581" rx="1.09948" ry="1.09955"/>
</mask>
<ellipse cx="32.1141" cy="11.1581" rx="1.09948" ry="1.09955" fill="#F9EEE3"/>
<path d="M31.8136 11.1581C31.8136 10.9923 31.9481 10.8577 32.1141 10.8577V13.6577C33.4946 13.6577 34.6136 12.5385 34.6136 11.1581H31.8136ZM32.1141 10.8577C32.2802 10.8577 32.4146 10.9923 32.4146 11.1581H29.6146C29.6146 12.5385 30.7336 13.6577 32.1141 13.6577V10.8577ZM32.4146 11.1581C32.4146 11.324 32.2802 11.4586 32.1141 11.4586V8.65859C30.7336 8.65859 29.6146 9.77776 29.6146 11.1581H32.4146ZM32.1141 11.4586C31.9481 11.4586 31.8136 11.324 31.8136 11.1581H34.6136C34.6136 9.77776 33.4946 8.65859 32.1141 8.65859V11.4586Z" fill="#F9F1E3" mask="url(#path-2-inside-1_221_263)"/>
<mask id="path-4-inside-2_221_263" fill="white">
<ellipse cx="13.4881" cy="11.1581" rx="1.09948" ry="1.09955"/>
</mask>
<ellipse cx="13.4881" cy="11.1581" rx="1.09948" ry="1.09955" fill="#F9EEE3"/>
<path d="M13.1876 11.1581C13.1876 10.9923 13.3221 10.8577 13.4881 10.8577V13.6577C14.8687 13.6577 15.9876 12.5385 15.9876 11.1581H13.1876ZM13.4881 10.8577C13.6542 10.8577 13.7887 10.9923 13.7887 11.1581H10.9887C10.9887 12.5385 12.1076 13.6577 13.4881 13.6577V10.8577ZM13.7887 11.1581C13.7887 11.324 13.6542 11.4586 13.4881 11.4586V8.65859C12.1076 8.65859 10.9887 9.77776 10.9887 11.1581H13.7887ZM13.4881 11.4586C13.3221 11.4586 13.1876 11.324 13.1876 11.1581H15.9876C15.9876 9.77776 14.8687 8.65859 13.4881 8.65859V11.4586Z" fill="#F9F1E3" mask="url(#path-4-inside-2_221_263)"/>
<mask id="path-6-inside-3_221_263" fill="white">
<ellipse cx="13.4881" cy="29.7704" rx="1.09948" ry="1.09955"/>
</mask>
<ellipse cx="13.4881" cy="29.7704" rx="1.09948" ry="1.09955" fill="#F9EEE3"/>
<path d="M13.1876 29.7704C13.1876 29.6046 13.3221 29.47 13.4881 29.47V32.27C14.8687 32.27 15.9876 31.1508 15.9876 29.7704H13.1876ZM13.4881 29.47C13.6542 29.47 13.7887 29.6046 13.7887 29.7704H10.9887C10.9887 31.1508 12.1076 32.27 13.4881 32.27V29.47ZM13.7887 29.7704C13.7887 29.9363 13.6542 30.0709 13.4881 30.0709V27.2709C12.1076 27.2709 10.9887 28.3901 10.9887 29.7704H13.7887ZM13.4881 30.0709C13.3221 30.0709 13.1876 29.9363 13.1876 29.7704H15.9876C15.9876 28.3901 14.8687 27.2709 13.4881 27.2709V30.0709Z" fill="#F9F1E3" mask="url(#path-6-inside-3_221_263)"/>
<mask id="path-8-inside-4_221_263" fill="white">
<ellipse cx="32.1141" cy="29.7704" rx="1.09948" ry="1.09955"/>
</mask>
<ellipse cx="32.1141" cy="29.7704" rx="1.09948" ry="1.09955" fill="#F9EEE3"/>
<path d="M31.8136 29.7704C31.8136 29.6046 31.9481 29.47 32.1141 29.47V32.27C33.4946 32.27 34.6136 31.1508 34.6136 29.7704H31.8136ZM32.1141 29.47C32.2802 29.47 32.4146 29.6046 32.4146 29.7704H29.6146C29.6146 31.1508 30.7336 32.27 32.1141 32.27V29.47ZM32.4146 29.7704C32.4146 29.9363 32.2802 30.0709 32.1141 30.0709V27.2709C30.7336 27.2709 29.6146 28.3901 29.6146 29.7704H32.4146ZM32.1141 30.0709C31.9481 30.0709 31.8136 29.9363 31.8136 29.7704H34.6136C34.6136 28.3901 33.4946 27.2709 32.1141 27.2709V30.0709Z" fill="#F9F1E3" mask="url(#path-8-inside-4_221_263)"/>
</g>
<g filter="url(#filter1_d_221_263)">
<path d="M146.077 7.10796C146.403 7.10796 146.665 7.22052 146.865 7.44564C147.09 7.67076 147.203 7.94591 147.203 8.27108V25.1552C147.203 25.4553 147.09 25.718 146.865 25.9431C146.64 26.1682 146.378 26.2808 146.077 26.2808C145.752 26.2808 145.477 26.1682 145.252 25.9431C145.052 25.718 144.952 25.4553 144.952 25.1552V20.6903L145.59 20.3901C145.59 21.0905 145.389 21.8034 144.989 22.5287C144.614 23.2541 144.089 23.9295 143.413 24.5548C142.738 25.1802 141.938 25.6929 141.012 26.0932C140.112 26.4684 139.136 26.656 138.085 26.656C136.384 26.656 134.859 26.2182 133.508 25.3428C132.182 24.4673 131.132 23.2666 130.356 21.7408C129.606 20.215 129.23 18.5016 129.23 16.6006C129.23 14.6495 129.618 12.9361 130.394 11.4603C131.169 9.95949 132.22 8.78386 133.545 7.9334C134.871 7.08294 136.372 6.65771 138.048 6.65771C139.123 6.65771 140.124 6.84532 141.05 7.22052C142 7.59572 142.826 8.10849 143.526 8.75884C144.226 9.40919 144.764 10.1596 145.139 11.0101C145.54 11.8355 145.74 12.6985 145.74 13.5989L144.952 13.0361V8.27108C144.952 7.94591 145.052 7.67076 145.252 7.44564C145.477 7.22052 145.752 7.10796 146.077 7.10796ZM138.273 24.5548C139.599 24.5548 140.774 24.2172 141.8 23.5418C142.826 22.8414 143.626 21.8909 144.201 20.6903C144.802 19.4646 145.102 18.1014 145.102 16.6006C145.102 15.1248 144.802 13.7991 144.201 12.6234C143.626 11.4478 142.826 10.5098 141.8 9.80941C140.774 9.10903 139.599 8.75884 138.273 8.75884C136.972 8.75884 135.797 9.09653 134.746 9.77189C133.72 10.4473 132.908 11.3727 132.307 12.5484C131.732 13.724 131.444 15.0747 131.444 16.6006C131.444 18.1014 131.732 19.4646 132.307 20.6903C132.908 21.8909 133.72 22.8414 134.746 23.5418C135.772 24.2172 136.947 24.5548 138.273 24.5548Z" fill="#F9EEE3"/>
<path d="M104.763 6.95752C106.314 6.95752 107.639 7.37024 108.74 8.19569C109.84 8.99612 110.591 10.1968 110.991 11.7976L110.466 11.9477L110.691 11.2723C111.016 10.5219 111.554 9.82156 112.304 9.17121C113.08 8.49585 113.955 7.95806 114.931 7.55784C115.906 7.15763 116.894 6.95752 117.895 6.95752C119.471 6.95752 120.734 7.2952 121.685 7.97056C122.66 8.64593 123.361 9.55892 123.786 10.7095C124.236 11.8351 124.461 13.1108 124.461 14.5366V25.1548C124.461 25.455 124.349 25.7176 124.123 25.9427C123.923 26.1678 123.661 26.2804 123.336 26.2804C123.01 26.2804 122.735 26.1678 122.51 25.9427C122.31 25.7176 122.21 25.455 122.21 25.1548V14.6492C122.21 13.6236 122.047 12.6856 121.722 11.8351C121.397 10.9847 120.884 10.3093 120.184 9.80905C119.483 9.30878 118.545 9.05865 117.37 9.05865C116.344 9.05865 115.356 9.30878 114.406 9.80905C113.48 10.3093 112.717 10.9847 112.117 11.8351C111.541 12.6856 111.254 13.6236 111.254 14.6492V25.1548C111.254 25.455 111.141 25.7176 110.916 25.9427C110.716 26.1678 110.453 26.2804 110.128 26.2804C109.803 26.2804 109.528 26.1678 109.303 25.9427C109.103 25.7176 109.003 25.455 109.003 25.1548V14.5366C109.003 13.511 108.852 12.5855 108.552 11.7601C108.252 10.9347 107.764 10.2843 107.089 9.80905C106.414 9.30878 105.501 9.05865 104.35 9.05865C103.324 9.05865 102.349 9.30878 101.423 9.80905C100.523 10.2843 99.7849 10.9347 99.2095 11.7601C98.6592 12.5855 98.3841 13.511 98.3841 14.5366V25.1548C98.3841 25.455 98.2715 25.7176 98.0464 25.9427C97.8213 26.1678 97.5586 26.2804 97.2584 26.2804C96.9082 26.2804 96.6331 26.1678 96.433 25.9427C96.2329 25.7176 96.1328 25.455 96.1328 25.1548V8.34577C96.1328 8.04561 96.2329 7.78296 96.433 7.55784C96.6581 7.33272 96.9333 7.22016 97.2584 7.22016C97.5836 7.22016 97.8463 7.33272 98.0464 7.55784C98.2715 7.78296 98.3841 8.04561 98.3841 8.34577V11.8351L97.371 13.2234C97.446 12.473 97.6837 11.7226 98.0839 10.9722C98.5091 10.2218 99.0594 9.54641 99.7348 8.94609C100.41 8.34577 101.173 7.87051 102.024 7.52032C102.899 7.14512 103.812 6.95752 104.763 6.95752Z" fill="#F9EEE3"/>
<path d="M90.2848 25.1555C90.2848 25.4556 90.1723 25.7183 89.9471 25.9434C89.722 26.1685 89.4594 26.2811 89.1592 26.2811C88.834 26.2811 88.5589 26.1685 88.3337 25.9434C88.1336 25.7183 88.0336 25.4556 88.0336 25.1555V7.8962C88.0336 7.59604 88.1336 7.3334 88.3337 7.10828C88.5589 6.88315 88.834 6.77059 89.1592 6.77059C89.4844 6.77059 89.747 6.88315 89.9471 7.10828C90.1723 7.3334 90.2848 7.59604 90.2848 7.8962V25.1555ZM92.386 3.8065C91.8857 3.8065 91.498 3.68143 91.2229 3.4313C90.9727 3.15615 90.8476 2.78095 90.8476 2.30569V1.93049C90.8476 1.45524 90.9852 1.09254 91.2604 0.842408C91.5355 0.567261 91.9232 0.429688 92.4235 0.429688C92.8988 0.429688 93.2615 0.567261 93.5116 0.842408C93.7868 1.09254 93.9244 1.45524 93.9244 1.93049V2.30569C93.9244 2.80596 93.7868 3.18117 93.5116 3.4313C93.2365 3.68143 92.8613 3.8065 92.386 3.8065ZM85.9324 3.8065C85.4321 3.8065 85.0569 3.68143 84.8068 3.4313C84.5316 3.15615 84.394 2.78095 84.394 2.30569V1.93049C84.394 1.45524 84.5316 1.09254 84.8068 0.842408C85.0819 0.567261 85.4571 0.429688 85.9324 0.429688C86.4327 0.429688 86.8079 0.567261 87.058 0.842408C87.3332 1.09254 87.4708 1.45524 87.4708 1.93049V2.30569C87.4708 2.80596 87.3332 3.18117 87.058 3.4313C86.7829 3.68143 86.4077 3.8065 85.9324 3.8065Z" fill="#F9EEE3"/>
<path d="M81.0749 7.10796C81.4001 7.10796 81.6628 7.22052 81.8629 7.44564C82.088 7.67076 82.2006 7.94591 82.2006 8.27108V25.1552C82.2006 25.4553 82.088 25.718 81.8629 25.9431C81.6378 26.1682 81.3751 26.2808 81.0749 26.2808C80.7498 26.2808 80.4746 26.1682 80.2495 25.9431C80.0494 25.718 79.9493 25.4553 79.9493 25.1552V20.6903L80.5872 20.3901C80.5872 21.0905 80.3871 21.8034 79.9868 22.5287C79.6116 23.2541 79.0863 23.9295 78.411 24.5548C77.7356 25.1802 76.9351 25.6929 76.0096 26.0932C75.1091 26.4684 74.1336 26.656 73.083 26.656C71.382 26.656 69.8562 26.2182 68.5054 25.3428C67.1797 24.4673 66.1291 23.2666 65.3537 21.7408C64.6032 20.215 64.228 18.5016 64.228 16.6006C64.228 14.6495 64.6157 12.9361 65.3912 11.4603C66.1666 9.95949 67.2172 8.78386 68.5429 7.9334C69.8687 7.08294 71.3695 6.65771 73.0455 6.65771C74.1211 6.65771 75.1216 6.84532 76.0471 7.22052C76.9977 7.59572 77.8231 8.10849 78.5235 8.75884C79.2239 9.40919 79.7617 10.1596 80.1369 11.0101C80.5371 11.8355 80.7373 12.6985 80.7373 13.5989L79.9493 13.0361V8.27108C79.9493 7.94591 80.0494 7.67076 80.2495 7.44564C80.4746 7.22052 80.7498 7.10796 81.0749 7.10796ZM73.2706 24.5548C74.5963 24.5548 75.772 24.2172 76.7976 23.5418C77.8231 22.8414 78.6236 21.8909 79.1989 20.6903C79.7992 19.4646 80.0994 18.1014 80.0994 16.6006C80.0994 15.1248 79.7992 13.7991 79.1989 12.6234C78.6236 11.4478 77.8231 10.5098 76.7976 9.80941C75.772 9.10903 74.5963 8.75884 73.2706 8.75884C71.9699 8.75884 70.7942 9.09653 69.7436 9.77189C68.718 10.4473 67.9051 11.3727 67.3047 12.5484C66.7294 13.724 66.4418 15.0747 66.4418 16.6006C66.4418 18.1014 66.7294 19.4646 67.3047 20.6903C67.9051 21.8909 68.718 22.8414 69.7436 23.5418C70.7692 24.2172 71.9448 24.5548 73.2706 24.5548Z" fill="#F9EEE3"/>
<path d="M52.7047 6.65771C54.3556 6.65771 55.6688 6.9954 56.6444 7.67076C57.6449 8.32111 58.3578 9.22159 58.7831 10.3722C59.2333 11.4978 59.4584 12.7485 59.4584 14.1242V25.1552C59.4584 25.4553 59.3459 25.718 59.1207 25.9431C58.8956 26.1682 58.633 26.2808 58.3328 26.2808C57.9826 26.2808 57.7075 26.1682 57.5073 25.9431C57.3072 25.718 57.2072 25.4553 57.2072 25.1552V14.2368C57.2072 13.2362 57.0446 12.3233 56.7194 11.4978C56.3942 10.6724 55.8564 10.0095 55.106 9.50925C54.3806 9.00898 53.4176 8.75884 52.2169 8.75884C51.1413 8.75884 50.1157 9.00898 49.1402 9.50925C48.1896 10.0095 47.4142 10.6724 46.8139 11.4978C46.2135 12.3233 45.9134 13.2362 45.9134 14.2368V25.1552C45.9134 25.4553 45.8008 25.718 45.5757 25.9431C45.3506 26.1682 45.0879 26.2808 44.7877 26.2808C44.4375 26.2808 44.1624 26.1682 43.9623 25.9431C43.7622 25.718 43.6621 25.4553 43.6621 25.1552V8.34612C43.6621 8.04596 43.7622 7.78332 43.9623 7.5582C44.1874 7.33308 44.4626 7.22052 44.7877 7.22052C45.1129 7.22052 45.3756 7.33308 45.5757 7.5582C45.8008 7.78332 45.9134 8.04596 45.9134 8.34612V11.4978L45.0504 12.8485C45.1004 12.0481 45.3506 11.2852 45.8008 10.5598C46.2761 9.80941 46.8764 9.14655 47.6018 8.57124C48.3272 7.97092 49.1277 7.50817 50.0032 7.183C50.9037 6.83281 51.8042 6.65771 52.7047 6.65771Z" fill="#F9EEE3"/>
<path fill-rule="evenodd" clip-rule="evenodd" d="M69.3267 1.93327C69.3267 1.24687 69.5394 0.69043 70.1438 0.69043H81.5138C82.1182 0.69043 82.2004 1.24687 82.2004 1.93327C82.2004 2.61967 82.1182 3.1761 81.5138 3.1761H70.1438C69.5394 3.1761 69.3267 2.61967 69.3267 1.93327Z" fill="#F9EEE3"/>
<path d="M118.281 34.5693C118.387 34.5693 118.475 34.6069 118.544 34.6821C118.619 34.7511 118.657 34.8388 118.657 34.9454V39.091C118.657 39.1975 118.619 39.2884 118.544 39.3636C118.475 39.4388 118.387 39.4764 118.281 39.4764C118.168 39.4764 118.077 39.4388 118.008 39.3636C117.939 39.2884 117.905 39.1975 117.905 39.091V38.1979L118.083 38.1791C118.083 38.317 118.036 38.4674 117.942 38.6303C117.848 38.7933 117.72 38.9468 117.557 39.091C117.394 39.2288 117.2 39.3448 116.974 39.4388C116.755 39.5265 116.516 39.5704 116.259 39.5704C115.833 39.5704 115.451 39.4607 115.113 39.2414C114.774 39.0158 114.505 38.7118 114.304 38.3295C114.11 37.9472 114.013 37.5117 114.013 37.0229C114.013 36.5278 114.11 36.0922 114.304 35.7162C114.505 35.3339 114.774 35.0362 115.113 34.8232C115.451 34.6038 115.827 34.4941 116.241 34.4941C116.51 34.4941 116.761 34.538 116.993 34.6257C117.225 34.7135 117.425 34.8326 117.594 34.983C117.77 35.1334 117.905 35.2994 117.999 35.4812C118.099 35.6629 118.149 35.8447 118.149 36.0264L117.905 35.97V34.9454C117.905 34.8388 117.939 34.7511 118.008 34.6821C118.077 34.6069 118.168 34.5693 118.281 34.5693ZM116.344 38.8747C116.657 38.8747 116.933 38.7933 117.171 38.6303C117.416 38.4674 117.604 38.248 117.735 37.9723C117.873 37.6903 117.942 37.3738 117.942 37.0229C117.942 36.6782 117.873 36.368 117.735 36.0922C117.604 35.8102 117.416 35.5909 117.171 35.4342C116.933 35.2712 116.657 35.1898 116.344 35.1898C116.037 35.1898 115.761 35.2681 115.517 35.4248C115.279 35.5815 115.091 35.7977 114.953 36.0734C114.815 36.3492 114.746 36.6656 114.746 37.0229C114.746 37.3738 114.812 37.6903 114.943 37.9723C115.081 38.248 115.269 38.4674 115.507 38.6303C115.752 38.7933 116.031 38.8747 116.344 38.8747Z" fill="#F9EEE3"/>
<path d="M110.989 39.4764C110.882 39.4764 110.791 39.4388 110.716 39.3636C110.647 39.2884 110.613 39.1975 110.613 39.091V34.9924C110.613 34.8858 110.647 34.7981 110.716 34.7292C110.791 34.6539 110.882 34.6163 110.989 34.6163C111.102 34.6163 111.192 34.6539 111.261 34.7292C111.33 34.7981 111.365 34.8858 111.365 34.9924V36.2332L111.252 36.0358C111.29 35.8415 111.355 35.6535 111.449 35.4718C111.55 35.2838 111.675 35.1177 111.825 34.9736C111.976 34.8232 112.148 34.7072 112.343 34.6257C112.537 34.538 112.75 34.4941 112.982 34.4941C113.12 34.4941 113.245 34.5286 113.358 34.5975C113.477 34.6602 113.536 34.7511 113.536 34.8702C113.536 35.0018 113.502 35.0989 113.433 35.1616C113.364 35.2242 113.286 35.2556 113.198 35.2556C113.116 35.2556 113.038 35.2399 112.963 35.2086C112.888 35.171 112.794 35.1522 112.681 35.1522C112.524 35.1522 112.368 35.196 112.211 35.2838C112.06 35.3652 111.919 35.4843 111.788 35.641C111.663 35.7977 111.559 35.9763 111.478 36.1768C111.402 36.3711 111.365 36.581 111.365 36.8066V39.091C111.365 39.1975 111.327 39.2884 111.252 39.3636C111.183 39.4388 111.095 39.4764 110.989 39.4764Z" fill="#F9EEE3"/>
<path d="M109.481 37.0323C109.481 37.5211 109.372 37.9566 109.152 38.3389C108.939 38.7212 108.648 39.022 108.278 39.2414C107.915 39.4607 107.504 39.5704 107.047 39.5704C106.589 39.5704 106.176 39.4607 105.806 39.2414C105.436 39.022 105.142 38.7212 104.922 38.3389C104.709 37.9566 104.603 37.5211 104.603 37.0323C104.603 36.5434 104.709 36.1079 104.922 35.7256C105.142 35.3433 105.436 35.0425 105.806 34.8232C106.176 34.6038 106.589 34.4941 107.047 34.4941C107.504 34.4941 107.915 34.6038 108.278 34.8232C108.648 35.0425 108.939 35.3433 109.152 35.7256C109.372 36.1079 109.481 36.5434 109.481 37.0323ZM108.729 37.0323C108.729 36.6688 108.654 36.3492 108.504 36.0734C108.36 35.7977 108.159 35.5815 107.902 35.4248C107.651 35.2681 107.366 35.1898 107.047 35.1898C106.727 35.1898 106.439 35.2681 106.182 35.4248C105.931 35.5815 105.731 35.7977 105.58 36.0734C105.43 36.3492 105.355 36.6688 105.355 37.0323C105.355 37.3895 105.43 37.706 105.58 37.9817C105.731 38.2575 105.931 38.4768 106.182 38.6397C106.439 38.7964 106.727 38.8747 107.047 38.8747C107.366 38.8747 107.651 38.7964 107.902 38.6397C108.159 38.4768 108.36 38.2575 108.504 37.9817C108.654 37.706 108.729 37.3895 108.729 37.0323Z" fill="#F9EEE3"/>
<path d="M101.309 34.6447H103.518C103.619 34.6447 103.7 34.6791 103.763 34.7481C103.832 34.817 103.866 34.8985 103.866 34.9925C103.866 35.0928 103.832 35.1774 103.763 35.2463C103.7 35.309 103.619 35.3403 103.518 35.3403H101.309C101.215 35.3403 101.134 35.3058 101.065 35.2369C100.996 35.168 100.961 35.0834 100.961 34.9831C100.961 34.8891 100.996 34.8107 101.065 34.7481C101.134 34.6791 101.215 34.6447 101.309 34.6447ZM102.296 33.3662C102.403 33.3662 102.491 33.4038 102.56 33.479C102.628 33.548 102.663 33.6357 102.663 33.7422V38.2826C102.663 38.433 102.685 38.5459 102.729 38.6211C102.773 38.6963 102.829 38.7495 102.898 38.7809C102.973 38.8059 103.045 38.8185 103.114 38.8185C103.177 38.8185 103.23 38.8091 103.274 38.7903C103.324 38.7652 103.381 38.7527 103.443 38.7527C103.506 38.7527 103.562 38.784 103.612 38.8467C103.669 38.9031 103.697 38.9783 103.697 39.0723C103.697 39.1851 103.631 39.2822 103.5 39.3637C103.368 39.4389 103.221 39.4765 103.058 39.4765C102.97 39.4765 102.86 39.4702 102.729 39.4577C102.603 39.4452 102.478 39.4044 102.353 39.3355C102.227 39.2666 102.121 39.1537 102.033 38.9971C101.952 38.8341 101.911 38.6085 101.911 38.3202V33.7422C101.911 33.6357 101.948 33.548 102.024 33.479C102.099 33.4038 102.19 33.3662 102.296 33.3662Z" fill="#F9EEE3"/>
<path d="M98.7842 34.4941C99.1039 34.4941 99.3922 34.5286 99.6491 34.5975C99.9061 34.6665 100.11 34.7605 100.26 34.8796C100.411 34.9986 100.486 35.1334 100.486 35.2838C100.486 35.3652 100.458 35.4436 100.401 35.5188C100.345 35.594 100.27 35.6316 100.176 35.6316C100.088 35.6316 100.016 35.6159 99.9593 35.5846C99.9092 35.5533 99.8591 35.5125 99.8089 35.4624C99.7651 35.4122 99.7024 35.3684 99.6209 35.3308C99.5457 35.2869 99.436 35.2524 99.2919 35.2274C99.1477 35.2023 99.0036 35.1898 98.8595 35.1898C98.5148 35.1898 98.2108 35.2712 97.9476 35.4342C97.6906 35.5971 97.487 35.8165 97.3366 36.0922C97.1861 36.368 97.1109 36.6813 97.1109 37.0323C97.1109 37.3832 97.183 37.6966 97.3272 37.9723C97.4713 38.248 97.6718 38.4674 97.9288 38.6303C98.1857 38.7933 98.4834 38.8747 98.8219 38.8747C99.0412 38.8747 99.2167 38.8559 99.3483 38.8183C99.4799 38.7807 99.5896 38.7369 99.6773 38.6867C99.7901 38.6241 99.8747 38.5614 99.9311 38.4987C99.9938 38.4361 100.075 38.4047 100.176 38.4047C100.282 38.4047 100.364 38.4392 100.42 38.5081C100.483 38.5771 100.514 38.6617 100.514 38.7619C100.514 38.8747 100.436 38.9938 100.279 39.1192C100.122 39.2445 99.9092 39.351 99.6397 39.4388C99.3765 39.5265 99.0757 39.5704 98.7372 39.5704C98.2609 39.5704 97.8442 39.4607 97.487 39.2414C97.1297 39.0158 96.8509 38.7118 96.6503 38.3295C96.456 37.941 96.3589 37.5085 96.3589 37.0323C96.3589 36.556 96.4592 36.1267 96.6597 35.7444C96.8665 35.3621 97.1517 35.0582 97.5152 34.8326C97.8787 34.6069 98.3017 34.4941 98.7842 34.4941Z" fill="#F9EEE3"/>
<path d="M94.8529 34.6167C94.9657 34.6167 95.0566 34.6543 95.1255 34.7295C95.1944 34.7984 95.2289 34.8862 95.2289 34.9927V37.559C95.2289 38.192 95.0503 38.684 94.6931 39.0349C94.3421 39.3796 93.8502 39.5519 93.2172 39.5519C92.5905 39.5519 92.0985 39.3796 91.7413 39.0349C91.3903 38.684 91.2148 38.192 91.2148 37.559V34.9927C91.2148 34.8862 91.2493 34.7984 91.3183 34.7295C91.3935 34.6543 91.4843 34.6167 91.5909 34.6167C91.7037 34.6167 91.7945 34.6543 91.8635 34.7295C91.9324 34.7984 91.9669 34.8862 91.9669 34.9927V37.559C91.9669 37.9852 92.0766 38.3079 92.2959 38.5273C92.5153 38.7466 92.8224 38.8563 93.2172 38.8563C93.6245 38.8563 93.9348 38.7466 94.1478 38.5273C94.3672 38.3079 94.4769 37.9852 94.4769 37.559V34.9927C94.4769 34.8862 94.5113 34.7984 94.5803 34.7295C94.6555 34.6543 94.7464 34.6167 94.8529 34.6167Z" fill="#F9EEE3"/>
<path d="M89.2972 32.52C89.4037 32.52 89.4915 32.5576 89.5604 32.6328C89.6356 32.7018 89.6732 32.7895 89.6732 32.896V39.0909C89.6732 39.1975 89.6356 39.2883 89.5604 39.3635C89.4915 39.4387 89.4037 39.4763 89.2972 39.4763C89.1844 39.4763 89.0935 39.4387 89.0246 39.3635C88.9556 39.2883 88.9212 39.1975 88.9212 39.0909V38.1979L89.0998 38.1321C89.0998 38.2825 89.0528 38.4423 88.9588 38.6115C88.8648 38.7744 88.7363 38.928 88.5733 39.0721C88.4104 39.2163 88.2161 39.3353 87.9905 39.4293C87.7711 39.5233 87.533 39.5703 87.276 39.5703C86.8562 39.5703 86.4739 39.4607 86.1292 39.2413C85.7907 39.022 85.5213 38.7212 85.3207 38.3389C85.1264 37.9566 85.0293 37.5211 85.0293 37.0322C85.0293 36.5371 85.1264 36.0985 85.3207 35.7162C85.5213 35.3339 85.7907 35.0362 86.1292 34.8231C86.4676 34.6038 86.8436 34.4941 87.2572 34.4941C87.5205 34.4941 87.768 34.538 87.9999 34.6257C88.2318 34.7135 88.4323 34.8325 88.6015 34.9829C88.777 35.1333 88.9149 35.2994 89.0152 35.4812C89.1154 35.6629 89.1656 35.8446 89.1656 36.0264L88.9212 35.97V32.896C88.9212 32.7895 88.9556 32.7018 89.0246 32.6328C89.0935 32.5576 89.1844 32.52 89.2972 32.52ZM87.3607 38.8747C87.674 38.8747 87.9498 38.7964 88.1879 38.6397C88.4323 38.4768 88.6203 38.2574 88.7519 37.9817C88.8898 37.6997 88.9588 37.3832 88.9588 37.0322C88.9588 36.675 88.8898 36.3585 88.7519 36.0828C88.6203 35.807 88.4323 35.5908 88.1879 35.4342C87.9498 35.2712 87.674 35.1897 87.3607 35.1897C87.0536 35.1897 86.7778 35.2712 86.5334 35.4342C86.2953 35.5908 86.1072 35.807 85.9694 36.0828C85.8315 36.3585 85.7625 36.675 85.7625 37.0322C85.7625 37.3769 85.8315 37.6903 85.9694 37.9723C86.1072 38.248 86.2953 38.4674 86.5334 38.6303C86.7778 38.7932 87.0536 38.8747 87.3607 38.8747Z" fill="#F9EEE3"/>
<path d="M84.1621 37.0323C84.1621 37.5211 84.0525 37.9566 83.8331 38.3389C83.62 38.7212 83.3286 39.022 82.9589 39.2414C82.5954 39.4607 82.1849 39.5704 81.7274 39.5704C81.2699 39.5704 80.8562 39.4607 80.4865 39.2414C80.1167 39.022 79.8222 38.7212 79.6028 38.3389C79.3897 37.9566 79.2832 37.5211 79.2832 37.0323C79.2832 36.5434 79.3897 36.1079 79.6028 35.7256C79.8222 35.3433 80.1167 35.0425 80.4865 34.8232C80.8562 34.6038 81.2699 34.4941 81.7274 34.4941C82.1849 34.4941 82.5954 34.6038 82.9589 34.8232C83.3286 35.0425 83.62 35.3433 83.8331 35.7256C84.0525 36.1079 84.1621 36.5434 84.1621 37.0323ZM83.4101 37.0323C83.4101 36.6688 83.3349 36.3492 83.1845 36.0734C83.0403 35.7977 82.8398 35.5815 82.5828 35.4248C82.3321 35.2681 82.047 35.1898 81.7274 35.1898C81.4077 35.1898 81.1195 35.2681 80.8625 35.4248C80.6118 35.5815 80.4113 35.7977 80.2609 36.0734C80.1105 36.3492 80.0353 36.6688 80.0353 37.0323C80.0353 37.3895 80.1105 37.706 80.2609 37.9817C80.4113 38.2575 80.6118 38.4768 80.8625 38.6397C81.1195 38.7964 81.4077 38.8747 81.7274 38.8747C82.047 38.8747 82.3321 38.7964 82.5828 38.6397C82.8398 38.4768 83.0403 38.2575 83.1845 37.9817C83.3349 37.706 83.4101 37.3895 83.4101 37.0323Z" fill="#F9EEE3"/>
<path d="M76.3599 39.4764C76.2534 39.4764 76.1625 39.4388 76.0873 39.3636C76.0184 39.2884 75.9839 39.1975 75.9839 39.091V34.9924C75.9839 34.8858 76.0184 34.7981 76.0873 34.7292C76.1625 34.6539 76.2534 34.6163 76.3599 34.6163C76.4727 34.6163 76.5636 34.6539 76.6325 34.7292C76.7015 34.7981 76.7359 34.8858 76.7359 34.9924V36.2332L76.6231 36.0358C76.6607 35.8415 76.7265 35.6535 76.8205 35.4718C76.9208 35.2838 77.0462 35.1177 77.1966 34.9736C77.347 34.8232 77.5193 34.7072 77.7136 34.6257C77.9079 34.538 78.121 34.4941 78.3528 34.4941C78.4907 34.4941 78.6161 34.5286 78.7289 34.5975C78.8479 34.6602 78.9075 34.7511 78.9075 34.8702C78.9075 35.0018 78.873 35.0989 78.8041 35.1616C78.7351 35.2242 78.6568 35.2556 78.5691 35.2556C78.4876 35.2556 78.4093 35.2399 78.334 35.2086C78.2588 35.171 78.1648 35.1522 78.052 35.1522C77.8954 35.1522 77.7387 35.196 77.582 35.2838C77.4316 35.3652 77.2906 35.4843 77.159 35.641C77.0336 35.7977 76.9302 35.9763 76.8487 36.1768C76.7735 36.3711 76.7359 36.581 76.7359 36.8066V39.091C76.7359 39.1975 76.6983 39.2884 76.6231 39.3636C76.5542 39.4388 76.4665 39.4764 76.3599 39.4764Z" fill="#F9EEE3"/>
<path d="M73.0641 32.8965C73.4087 32.8965 73.719 32.9811 73.9947 33.1503C74.2705 33.3195 74.4867 33.5514 74.6434 33.8459C74.8063 34.1405 74.8878 34.4758 74.8878 34.8518C74.8878 35.2215 74.8063 35.5568 74.6434 35.8576C74.4867 36.1584 74.2705 36.3966 73.9947 36.5721C73.719 36.7475 73.4087 36.8353 73.0641 36.8353H71.1557L71.2215 36.7225V39.0914C71.2215 39.1979 71.1871 39.2888 71.1181 39.364C71.0492 39.4392 70.9614 39.4768 70.8549 39.4768C70.7421 39.4768 70.6512 39.4392 70.5823 39.364C70.5196 39.2888 70.4883 39.1979 70.4883 39.0914V33.2725C70.4883 33.166 70.5228 33.0782 70.5917 33.0093C70.6669 32.9341 70.7578 32.8965 70.8643 32.8965H73.0641ZM73.0641 36.1114C73.2709 36.1114 73.4526 36.055 73.6093 35.9422C73.766 35.8294 73.8913 35.6759 73.9853 35.4816C74.0793 35.2873 74.1263 35.0774 74.1263 34.8518C74.1263 34.6136 74.0793 34.4037 73.9853 34.2219C73.8913 34.0402 73.766 33.8961 73.6093 33.7895C73.4526 33.6767 73.2709 33.6203 73.0641 33.6203H71.1557L71.2215 33.5169V36.2054L71.1557 36.1114H73.0641Z" fill="#F9EEE3"/>
<path d="M65.9979 34.5693C66.1044 34.5693 66.1922 34.6069 66.2611 34.6821C66.3363 34.7511 66.3739 34.8388 66.3739 34.9454V39.091C66.3739 39.1975 66.3363 39.2884 66.2611 39.3636C66.1922 39.4388 66.1044 39.4764 65.9979 39.4764C65.8851 39.4764 65.7942 39.4388 65.7253 39.3636C65.6563 39.2884 65.6218 39.1975 65.6218 39.091V38.1979L65.8005 38.1791C65.8005 38.317 65.7535 38.4674 65.6594 38.6303C65.5654 38.7933 65.437 38.9468 65.274 39.091C65.1111 39.2288 64.9168 39.3448 64.6912 39.4388C64.4718 39.5265 64.2337 39.5704 63.9767 39.5704C63.5506 39.5704 63.1683 39.4607 62.8299 39.2414C62.4914 39.0158 62.2219 38.7118 62.0214 38.3295C61.8271 37.9472 61.73 37.5117 61.73 37.0229C61.73 36.5278 61.8271 36.0922 62.0214 35.7162C62.2219 35.3339 62.4914 35.0362 62.8299 34.8232C63.1683 34.6038 63.5443 34.4941 63.9579 34.4941C64.2274 34.4941 64.4781 34.538 64.71 34.6257C64.9419 34.7135 65.1424 34.8326 65.3116 34.983C65.4871 35.1334 65.6218 35.2994 65.7159 35.4812C65.8161 35.6629 65.8663 35.8447 65.8663 36.0264L65.6218 35.97V34.9454C65.6218 34.8388 65.6563 34.7511 65.7253 34.6821C65.7942 34.6069 65.8851 34.5693 65.9979 34.5693ZM64.0613 38.8747C64.3747 38.8747 64.6504 38.7933 64.8886 38.6303C65.133 38.4674 65.321 38.248 65.4526 37.9723C65.5905 37.6903 65.6594 37.3738 65.6594 37.0229C65.6594 36.6782 65.5905 36.368 65.4526 36.0922C65.321 35.8102 65.133 35.5909 64.8886 35.4342C64.6504 35.2712 64.3747 35.1898 64.0613 35.1898C63.7543 35.1898 63.4785 35.2681 63.2341 35.4248C62.9959 35.5815 62.8079 35.7977 62.67 36.0734C62.5322 36.3492 62.4632 36.6656 62.4632 37.0229C62.4632 37.3738 62.529 37.6903 62.6606 37.9723C62.7985 38.248 62.9865 38.4674 63.2247 38.6303C63.4691 38.7933 63.748 38.8747 64.0613 38.8747Z" fill="#F9EEE3"/>
<path d="M57.1953 38.7055C57.1389 38.6241 57.1138 38.5395 57.1201 38.4517C57.1263 38.3577 57.1796 38.2763 57.2799 38.2073C57.3426 38.1634 57.4146 38.1446 57.4961 38.1509C57.5838 38.1572 57.6622 38.1979 57.7311 38.2731C57.9066 38.4799 58.1071 38.646 58.3328 38.7713C58.5584 38.8904 58.8341 38.9499 59.16 38.9499C59.3104 38.9437 59.4608 38.9186 59.6113 38.8747C59.7617 38.8309 59.887 38.7557 59.9873 38.6491C60.0938 38.5363 60.1471 38.3891 60.1471 38.2073C60.1471 38.0318 60.0938 37.894 59.9873 37.7937C59.8807 37.6872 59.7429 37.6026 59.5736 37.5399C59.4044 37.4709 59.2196 37.4114 59.019 37.3613C58.8122 37.3049 58.6085 37.2422 58.408 37.1733C58.2074 37.0981 58.0257 37.0072 57.8627 36.9007C57.7061 36.7878 57.5776 36.65 57.4773 36.487C57.3833 36.3178 57.3363 36.1141 57.3363 35.876C57.3363 35.594 57.4115 35.3496 57.5619 35.1428C57.7186 34.936 57.9254 34.7762 58.1824 34.6633C58.4456 34.5505 58.7307 34.4941 59.0378 34.4941C59.2133 34.4941 59.395 34.5161 59.583 34.5599C59.7773 34.5975 59.9653 34.6665 60.1471 34.7668C60.3288 34.8608 60.4886 34.9924 60.6265 35.1616C60.6829 35.2242 60.7143 35.3026 60.7205 35.3966C60.7268 35.4906 60.6861 35.5752 60.5983 35.6504C60.5294 35.7005 60.451 35.7225 60.3633 35.7162C60.2818 35.7099 60.2129 35.6786 60.1565 35.6222C60.0249 35.4655 59.8588 35.3464 59.6583 35.265C59.464 35.1772 59.2478 35.1334 59.0096 35.1334C58.8592 35.1334 58.7119 35.1553 58.5678 35.1992C58.4236 35.243 58.3014 35.3182 58.2012 35.4248C58.1071 35.5251 58.0601 35.6661 58.0601 35.8478C58.0664 36.017 58.1228 36.1549 58.2294 36.2614C58.3359 36.368 58.48 36.4557 58.6618 36.5246C58.8435 36.5873 59.0441 36.65 59.2634 36.7126C59.464 36.7628 59.6551 36.8223 59.8369 36.8913C60.0249 36.9539 60.1941 37.0385 60.3445 37.1451C60.4949 37.2516 60.614 37.3895 60.7017 37.5587C60.7895 37.7216 60.8333 37.9284 60.8333 38.1791C60.8333 38.4674 60.7519 38.7181 60.5889 38.9311C60.426 39.138 60.2098 39.2978 59.9403 39.4106C59.6771 39.5171 59.3919 39.5704 59.0848 39.5704C58.7401 39.5704 58.3986 39.5046 58.0601 39.373C57.728 39.2414 57.4397 39.0189 57.1953 38.7055Z" fill="#F9EEE3"/>
<path d="M55.6981 34.5693C55.8046 34.5693 55.8923 34.6069 55.9613 34.6821C56.0365 34.7511 56.0741 34.8388 56.0741 34.9454V39.091C56.0741 39.1975 56.0365 39.2884 55.9613 39.3636C55.8923 39.4388 55.8046 39.4764 55.6981 39.4764C55.5853 39.4764 55.4944 39.4388 55.4254 39.3636C55.3565 39.2884 55.322 39.1975 55.322 39.091V38.1979L55.5007 38.1791C55.5007 38.317 55.4536 38.4674 55.3596 38.6303C55.2656 38.7933 55.1372 38.9468 54.9742 39.091C54.8113 39.2288 54.617 39.3448 54.3914 39.4388C54.172 39.5265 53.9339 39.5704 53.6769 39.5704C53.2508 39.5704 52.8685 39.4607 52.5301 39.2414C52.1916 39.0158 51.9221 38.7118 51.7216 38.3295C51.5273 37.9472 51.4302 37.5117 51.4302 37.0229C51.4302 36.5278 51.5273 36.0922 51.7216 35.7162C51.9221 35.3339 52.1916 35.0362 52.5301 34.8232C52.8685 34.6038 53.2445 34.4941 53.6581 34.4941C53.9276 34.4941 54.1783 34.538 54.4102 34.6257C54.6421 34.7135 54.8426 34.8326 55.0118 34.983C55.1873 35.1334 55.322 35.2994 55.416 35.4812C55.5163 35.6629 55.5665 35.8447 55.5665 36.0264L55.322 35.97V34.9454C55.322 34.8388 55.3565 34.7511 55.4254 34.6821C55.4944 34.6069 55.5853 34.5693 55.6981 34.5693ZM53.7615 38.8747C54.0749 38.8747 54.3506 38.7933 54.5888 38.6303C54.8332 38.4674 55.0212 38.248 55.1528 37.9723C55.2907 37.6903 55.3596 37.3738 55.3596 37.0229C55.3596 36.6782 55.2907 36.368 55.1528 36.0922C55.0212 35.8102 54.8332 35.5909 54.5888 35.4342C54.3506 35.2712 54.0749 35.1898 53.7615 35.1898C53.4544 35.1898 53.1787 35.2681 52.9343 35.4248C52.6961 35.5815 52.5081 35.7977 52.3702 36.0734C52.2324 36.3492 52.1634 36.6656 52.1634 37.0229C52.1634 37.3738 52.2292 37.6903 52.3608 37.9723C52.4987 38.248 52.6867 38.4674 52.9249 38.6303C53.1693 38.7933 53.4482 38.8747 53.7615 38.8747Z" fill="#F9EEE3"/>
<path d="M50.5035 33.3289C50.61 33.3853 50.6696 33.4699 50.6821 33.5827C50.7009 33.6955 50.6727 33.7989 50.5975 33.8929C50.5411 33.9744 50.469 34.0183 50.3813 34.0245C50.2935 34.0308 50.2058 34.012 50.1181 33.9681C49.9112 33.8428 49.6888 33.7457 49.4506 33.6767C49.2125 33.6015 48.9618 33.5639 48.6986 33.5639C48.3288 33.5639 47.9904 33.6297 47.6833 33.7613C47.3762 33.8867 47.1098 34.0653 46.8842 34.2972C46.6586 34.529 46.4831 34.8048 46.3578 35.1244C46.2325 35.444 46.1698 35.7981 46.1698 36.1866C46.1698 36.6003 46.2356 36.97 46.3672 37.2959C46.4988 37.6218 46.6774 37.9007 46.903 38.1325C47.1349 38.3581 47.4013 38.5305 47.7021 38.6496C48.0092 38.7686 48.3413 38.8282 48.6986 38.8282C48.9555 38.8282 49.2031 38.7937 49.4412 38.7248C49.6794 38.6558 49.905 38.5556 50.1181 38.424C50.2058 38.3801 50.2935 38.3644 50.3813 38.3769C50.469 38.3895 50.5442 38.4334 50.6069 38.5086C50.6821 38.6088 50.7103 38.7154 50.6915 38.8282C50.6727 38.9347 50.6132 39.013 50.5129 39.0632C50.3562 39.1572 50.1776 39.2449 49.977 39.3264C49.7765 39.4016 49.5665 39.4611 49.3472 39.505C49.1341 39.5489 48.9179 39.5708 48.6986 39.5708C48.2473 39.5708 47.8212 39.4925 47.4201 39.3358C47.019 39.1791 46.6649 38.9535 46.3578 38.659C46.0507 38.3644 45.8063 38.0103 45.6245 37.5967C45.4491 37.1768 45.3613 36.7068 45.3613 36.1866C45.3613 35.6978 45.4459 35.2497 45.6151 34.8424C45.7844 34.435 46.0194 34.0809 46.3202 33.7801C46.6273 33.4793 46.9814 33.2443 47.3825 33.0751C47.7898 32.9059 48.2285 32.8213 48.6986 32.8213C49.0244 32.8213 49.3409 32.8652 49.648 32.9529C49.9614 33.0406 50.2465 33.166 50.5035 33.3289Z" fill="#F9EEE3"/>
</g>
<defs>
<filter id="filter0_d_221_263" x="0.303711" y="1.90576" width="44.0659" height="44.1875" filterUnits="userSpaceOnUse" color-interpolation-filters="sRGB">
<feFlood flood-opacity="0" result="BackgroundImageFix"/>
<feColorMatrix in="SourceAlpha" type="matrix" values="0 0 0 0 0 0 0 0 0 0 0 0 0 0 0 0 0 0 127 0" result="hardAlpha"/>
<feOffset dy="4"/>
<feGaussianBlur stdDeviation="2"/>
<feComposite in2="hardAlpha" operator="out"/>
<feColorMatrix type="matrix" values="0 0 0 0 0 0 0 0 0 0 0 0 0 0 0 0 0 0 0.25 0"/>
<feBlend mode="normal" in2="BackgroundImageFix" result="effect1_dropShadow_221_263"/>
<feBlend mode="normal" in="SourceGraphic" in2="effect1_dropShadow_221_263" result="shape"/>
</filter>
<filter id="filter1_d_221_263" x="39.6621" y="0.429688" width="111.541" height="47.1411" filterUnits="userSpaceOnUse" color-interpolation-filters="sRGB">
<feFlood flood-opacity="0" result="BackgroundImageFix"/>
<feColorMatrix in="SourceAlpha" type="matrix" values="0 0 0 0 0 0 0 0 0 0 0 0 0 0 0 0 0 0 127 0" result="hardAlpha"/>
<feOffset dy="4"/>
<feGaussianBlur stdDeviation="2"/>
<feComposite in2="hardAlpha" operator="out"/>
<feColorMatrix type="matrix" values="0 0 0 0 0 0 0 0 0 0 0 0 0 0 0 0 0 0 0.25 0"/>
<feBlend mode="normal" in2="BackgroundImageFix" result="effect1_dropShadow_221_263"/>
<feBlend mode="normal" in="SourceGraphic" in2="effect1_dropShadow_221_263" result="shape"/>
</filter>
</defs>
</svg>
